<svg xmlns="http://www.w3.org/2000/svg" width="32" height="32" viewBox="0 0 32 32" fill="none">
  <path fill-rule="evenodd" clip-rule="evenodd" d="M15.9993 2.66675C12.3175 2.66675 9.33268 5.65152 9.33268 9.33341C9.33268 13.0153 12.3175 16.0001 15.9993 16.0001C19.6812 16.0001 22.666 13.0153 22.666 9.33341C22.666 5.65152 19.6812 2.66675 15.9993 2.66675ZM15.9993 5.33341C18.2085 5.33341 19.9993 7.12428 19.9993 9.33341C19.9993 11.5426 18.2085 13.3334 15.9993 13.3334C13.7902 13.3334 11.9993 11.5426 11.9993 9.33341C11.9993 7.12428 13.7902 5.33341 15.9993 5.33341ZM25.3265 25.0442C25.1751 21.4965 22.251 18.6667 18.666 18.6667H13.3327L13.0435 18.6729C9.49576 18.8243 6.66602 21.7484 6.66602 25.3334V28.0001L6.67499 28.1556C6.75201 28.8187 7.31557 29.3334 7.99935 29.3334C8.73573 29.3334 9.33268 28.7365 9.33268 28.0001V25.3334L9.33947 25.0984C9.46113 22.9986 11.2024 21.3334 13.3327 21.3334H18.666L18.901 21.3402C21.0008 21.4619 22.666 23.2032 22.666 25.3334V28.0001L22.675 28.1556C22.752 28.8187 23.3156 29.3334 23.9993 29.3334C24.7357 29.3334 25.3327 28.7365 25.3327 28.0001V25.3334L25.3265 25.0442Z" fill="#FE9EBF"/>
</svg>
