<svg xmlns="http://www.w3.org/2000/svg" width="32" height="32" viewBox="0 0 32 32" fill="none">
  <path fill-rule="evenodd" clip-rule="evenodd" d="M22.6577 3.84446C22.5807 3.18135 22.0171 2.66663 21.3333 2.66663C20.597 2.66663 20 3.26358 20 3.99996V5.33329H12V3.99996L11.991 3.84446C11.914 3.18135 11.3504 2.66663 10.6667 2.66663C9.93029 2.66663 9.33333 3.26358 9.33333 3.99996V5.33329H8C5.79086 5.33329 4 7.12415 4 9.33329V14.6666V25.3333C4 27.5424 5.79086 29.3333 8 29.3333H24C26.2091 29.3333 28 27.5424 28 25.3333V14.6666V9.33329C28 7.12415 26.2091 5.33329 24 5.33329H22.6667V3.99996L22.6577 3.84446ZM25.3333 13.3333V9.33329C25.3333 8.59691 24.7364 7.99996 24 7.99996H22.6667V9.33329C22.6667 10.0697 22.0697 10.6666 21.3333 10.6666C20.6496 10.6666 20.086 10.1519 20.009 9.48879L20 9.33329V7.99996H12V9.33329C12 10.0697 11.403 10.6666 10.6667 10.6666C9.98289 10.6666 9.41932 10.1519 9.3423 9.48879L9.33333 9.33329V7.99996H8C7.26362 7.99996 6.66667 8.59691 6.66667 9.33329V13.3333H25.3333ZM6.66667 16H25.3333V25.3333C25.3333 26.0697 24.7364 26.6666 24 26.6666H8C7.26362 26.6666 6.66667 26.0697 6.66667 25.3333V16ZM17.3244 19.8445C17.3303 19.8955 17.3333 19.9474 17.3333 20V24C17.3333 24.7363 16.7364 25.3333 16 25.3333C15.3162 25.3333 14.7527 24.8186 14.6756 24.1555L14.6667 24V21.3333C13.9303 21.3333 13.3333 20.7363 13.3333 20C13.3333 19.3162 13.8481 18.7526 14.5112 18.6756L14.6667 18.6666H16C16.6838 18.6666 17.2473 19.1814 17.3244 19.8445Z" fill="#171717"/>
</svg>
