<svg xmlns="http://www.w3.org/2000/svg" width="32" height="32" viewBox="0 0 32 32" fill="none">
  <path fill-rule="evenodd" clip-rule="evenodd" d="M21.3333 2.66675C22.0171 2.66675 22.5807 3.18147 22.6577 3.84459L22.6667 4.00008V5.33341H24C26.2091 5.33341 28 7.12428 28 9.33342V14.6667V25.3334C28 27.5426 26.2091 29.3334 24 29.3334H8C5.79086 29.3334 4 27.5426 4 25.3334V14.6667V9.33342C4 7.12428 5.79086 5.33341 8 5.33341H9.33333V4.00008C9.33333 3.2637 9.93029 2.66675 10.6667 2.66675C11.3504 2.66675 11.914 3.18147 11.991 3.84459L12 4.00008V5.33341H20V4.00008C20 3.2637 20.597 2.66675 21.3333 2.66675ZM25.3333 9.33341V13.3334H6.66667V9.33341C6.66667 8.59703 7.26362 8.00008 8 8.00008H9.33333V9.33342L9.3423 9.48891C9.41932 10.152 9.98289 10.6667 10.6667 10.6667C11.403 10.6667 12 10.0698 12 9.33342V8.00008H20V9.33342L20.009 9.48891C20.086 10.152 20.6496 10.6667 21.3333 10.6667C22.0697 10.6667 22.6667 10.0698 22.6667 9.33342V8.00008H24C24.7364 8.00008 25.3333 8.59703 25.3333 9.33341ZM25.3333 16.0001H6.66667V25.3334C6.66667 26.0698 7.26362 26.6667 8 26.6667H24C24.7364 26.6667 25.3333 26.0698 25.3333 25.3334V16.0001ZM9.33333 20.0001C9.33333 19.2637 9.93029 18.6667 10.6667 18.6667H13.3333C14.0697 18.6667 14.6667 19.2637 14.6667 20.0001V22.6667C14.6667 23.4031 14.0697 24.0001 13.3333 24.0001H10.6667C9.93029 24.0001 9.33333 23.4031 9.33333 22.6667V20.0001Z" fill="#FF9DBE"/>
</svg>
