<svg xmlns="http://www.w3.org/2000/svg" width="32" height="32" viewBox="0 0 32 32" fill="none">
  <path fill-rule="evenodd" clip-rule="evenodd" d="M19.9926 7.76497C19.8709 5.66523 18.1296 4 15.9993 4H6.66602L6.43099 4.00679C4.33124 4.12845 2.66602 5.86976 2.66602 8V24L2.67281 24.235C2.79447 26.3348 4.53577 28 6.66602 28H15.9993L16.2344 27.9932C18.3341 27.8715 19.9993 26.1302 19.9993 24V21.3333L19.9904 21.1778C19.9134 20.5147 19.3498 20 18.666 20C17.9296 20 17.3327 20.597 17.3327 21.3333V24L17.3237 24.1555C17.2467 24.8186 16.6831 25.3333 15.9993 25.3333H6.66602L6.51052 25.3244C5.8474 25.2473 5.33268 24.6838 5.33268 24V8L5.34165 7.84451C5.41867 7.18139 5.98223 6.66667 6.66602 6.66667H15.9993L16.1548 6.67564C16.818 6.75266 17.3327 7.31622 17.3327 8V10.6667L17.3417 10.8222C17.4187 11.4853 17.9822 12 18.666 12C19.4024 12 19.9993 11.403 19.9993 10.6667V8L19.9926 7.76497ZM24.9422 11.0572L24.8165 10.9463L24.6812 10.8538C24.1694 10.5488 23.4971 10.6166 23.0565 11.0572L22.9456 11.1828C22.5389 11.7059 22.5759 12.4622 23.0565 12.9428L24.7793 14.6667H9.33268L9.17719 14.6756C8.51407 14.7527 7.99935 15.3162 7.99935 16C7.99935 16.7364 8.5963 17.3333 9.33268 17.3333H24.778L23.0565 19.0572L22.9456 19.1828C22.5389 19.7059 22.5759 20.4622 23.0565 20.9428C23.5772 21.4635 24.4215 21.4635 24.9422 20.9428L28.8878 16.9985C29.0263 16.8736 29.1363 16.721 29.2128 16.5535L29.2668 16.4148L29.3154 16.2202C29.3843 15.8238 29.2778 15.3929 28.9422 15.0572L24.9422 11.0572Z" fill="#FE9EBF"/>
</svg>
