<svg xmlns="http://www.w3.org/2000/svg" width="72" height="72" viewBox="0 0 72 72" fill="none">
  <path fill-rule="evenodd" clip-rule="evenodd" d="M39 9C43.793 9 47.711 12.7468 47.9847 17.4712L48 18V30H54C58.793 30 62.711 33.7468 62.9847 38.4712L63 39L62.9417 39.5883L59.9208 54.6847C58.7776 59.5614 55.4162 63.0722 51.4932 63.0246L51 63H30C27.3892 63 24.9731 62.1662 23.0035 60.7505L22.8 60.597C21.7814 61.9504 20.2218 62.8527 18.4478 62.9835L18 63H12C8.83691 63 6.2455 60.5524 6.01646 57.4478L6 57V36C6 32.8369 8.44763 30.2455 11.5522 30.0165L12 30H21C25.793 30 29.711 26.2532 29.9847 21.5288L30 21V18C30 13.0294 34.0294 9 39 9ZM39 15C37.4615 15 36.1935 16.1581 36.0202 17.6501L36 18V21C36 28.1942 30.9353 34.2055 24.1769 35.6629L24 35.694V51C24 54.1631 26.4476 56.7545 29.5522 56.9835L30 57L51.2543 57.0108C52.1351 57.0857 53.3142 55.9748 53.9272 53.906L54.0583 53.4117L56.985 38.763L56.9798 38.6501C56.8199 37.2729 55.7271 36.1801 54.3499 36.0202L54 36H45C43.4615 36 42.1935 34.8419 42.0202 33.3499L42 33V18C42 16.3431 40.6569 15 39 15ZM18 57V36H12V57H18Z" fill="white"/>
</svg>
