<svg width="473" height="830" viewBox="0 0 473 830" fill="none" xmlns="http://www.w3.org/2000/svg">
<path d="M296.724 120.763C260.714 103.627 223.956 102.03 222.411 101.978C222.202 101.969 222.017 102.034 221.82 102.07C212.037 98.1964 202.504 94.741 193.228 91.6718C208.972 92.4602 235.118 94.745 259.117 101.318C260.525 101.772 261.969 100.875 262.347 99.4836C262.733 98.0837 261.909 96.6396 260.509 96.2494C222.484 85.8432 179.173 86 178.739 86.0041C178.103 86.0041 177.544 86.2655 177.093 86.6436C166.056 83.4015 155.424 80.6983 145.235 78.4658C160.384 76.5672 186.888 74.6887 212.045 80.0024C213.417 80.2317 214.853 79.395 215.155 77.9751C215.456 76.5591 214.547 75.1714 213.127 74.8657C174.129 66.531 133.264 74.926 131.538 75.288C131.293 75.3403 131.088 75.461 130.874 75.5736C119.129 73.4055 108.039 71.8608 97.6564 70.8069C112.837 67.8504 137.898 64.3347 162.359 66.9734C163.807 67.1303 165.098 66.0845 165.251 64.6484C165.408 63.2003 164.386 61.889 162.922 61.7482C123.308 57.4883 82.246 68.9123 81.8398 69.033C81.5099 69.1255 81.2243 69.2824 80.9669 69.4795C36.5139 66.9332 7.86538 73.3331 0.0737305 75.3765V80.815C1.55402 80.3886 6.02306 79.1859 13.1993 77.9147C13.3038 78.0314 13.3803 78.1722 13.509 78.2727C14.2491 78.8359 32.1293 92.3355 74.2774 106.35C74.3981 106.386 74.5228 106.418 74.6394 106.439C75.9065 106.668 77.1817 105.944 77.596 104.689C78.0506 103.309 77.3104 101.829 75.9347 101.366C45.5565 91.2655 27.8976 81.3218 20.6329 76.7361C25.0617 76.1086 30.1381 75.5173 35.8582 75.0547C38.9998 76.8085 67.773 92.5769 107.717 106.716C107.854 106.756 107.986 106.797 108.123 106.821C109.374 107.046 110.629 106.346 111.072 105.111C111.55 103.747 110.834 102.251 109.467 101.76C80.3193 91.4506 57.2098 80.2719 45.8461 74.4192C57.1092 73.8922 70.2589 73.9003 85.1342 74.9381C90.1101 78.8802 111.812 95.4248 146.727 113.369C146.965 113.49 147.206 113.575 147.459 113.619C148.566 113.82 149.72 113.289 150.263 112.231C150.923 110.94 150.416 109.359 149.125 108.703C123.067 95.3122 104.515 82.7458 94.909 75.7506C106.779 76.889 119.623 78.679 133.356 81.3339C139.523 86.9453 162.616 107.424 193.023 127.83C193.332 128.031 193.666 128.168 194.012 128.237C195.01 128.418 196.064 128.011 196.667 127.11C197.48 125.908 197.15 124.278 195.947 123.474C172.781 107.931 153.912 92.3476 143.674 83.4699C154.76 85.8914 166.373 88.8641 178.489 92.5085C182.705 96.9293 205.625 120.348 237.838 141.966C238.147 142.175 238.489 142.311 238.835 142.372C239.829 142.553 240.887 142.147 241.486 141.254C242.299 140.051 241.977 138.414 240.766 137.605C217.415 121.933 199.044 105.328 189.318 95.9156C198.67 98.9647 208.296 102.408 218.184 106.294C218.192 106.302 218.192 106.31 218.2 106.318C218.437 106.551 242.862 129.858 278.361 153.683C278.674 153.892 279.004 154.021 279.35 154.089C280.356 154.27 281.406 153.864 282.005 152.971C282.814 151.764 282.496 150.131 281.293 149.327C260.139 135.135 242.991 121.145 232.637 112.215C250.674 119.894 269.495 129.009 289.036 139.842C289.29 139.982 289.559 140.079 289.837 140.127C290.915 140.324 292.041 139.826 292.608 138.812C293.308 137.545 292.85 135.948 291.579 135.248C273.22 125.067 255.472 116.39 238.405 108.985C252.484 111.097 273.807 115.686 294.479 125.529C294.696 125.626 294.917 125.702 295.139 125.739C296.281 125.944 297.46 125.377 297.979 124.287C298.602 122.971 298.047 121.41 296.736 120.783L296.724 120.763Z" fill="#008A52"/>
<path d="M158.35 6.22732C190.594 15.5556 215.034 35.8015 216.055 36.6924C216.187 36.8031 216.286 36.9605 216.384 37.1178C224.726 40.199 232.682 43.3701 240.259 46.6727C229.73 38.0571 211.731 24.4312 192.855 14.9381C191.724 14.4419 191.266 12.9733 191.757 11.8114C192.247 10.6494 193.572 10.1473 194.668 10.6899C224.606 25.7252 252.318 50.9904 252.588 51.2536C252.99 51.6276 253.208 52.1092 253.314 52.6469C262.112 56.8581 270.374 61.2201 278.123 65.6029C269.435 55.5319 253.398 38.8681 234.454 27.8582C233.464 27.2176 232.977 25.8373 233.546 24.6657C234.12 23.5359 235.415 23.122 236.522 23.7481C265.989 40.7478 287.713 70.1401 288.619 71.3841C288.762 71.5783 288.827 71.7821 288.886 71.9442C297.589 77.311 305.501 82.6906 312.734 88.0266C304.588 77.211 290.38 60.2794 273.287 47.8976C272.287 47.1735 271.989 45.7274 272.685 44.6249C273.347 43.5689 274.698 43.2754 275.742 44.0363C303.412 64.1382 323.662 95.7033 323.859 96.018C324.007 96.2539 324.121 96.5364 324.196 96.8237C359.165 125.05 373.714 148.929 374.01 149.401C374.662 150.507 374.363 151.942 373.337 152.619C372.312 153.296 370.962 152.954 370.311 151.848C370.207 151.649 367.929 147.948 363.176 141.84C363.059 141.854 362.908 141.915 362.786 141.888C362.029 141.854 343.331 140.558 308.845 125.575C308.762 125.543 308.635 125.474 308.551 125.441C307.611 124.88 307.178 123.62 307.601 122.551C308.047 121.352 309.323 120.771 310.453 121.267C335.317 132.098 351.949 135.598 359.063 136.755C356.555 133.759 353.605 130.395 350.19 126.791C347.219 126.141 320.369 120.087 287.2 106.467C287.072 106.398 286.989 106.366 286.901 106.292C285.999 105.726 285.533 104.512 285.917 103.448C286.324 102.254 287.599 101.673 288.725 102.128C312.924 112.066 333.69 117.937 344.118 120.592C337.168 113.696 328.74 106.05 318.655 98.1422C313.357 97.9054 290.602 96.4735 258.664 88.3361C258.458 88.2767 258.248 88.1756 258.076 88.0696C257.263 87.5768 256.817 86.5302 257.006 85.4902C257.286 84.2271 258.418 83.4521 259.606 83.7717C283.449 89.8566 302.07 92.137 311.96 92.9939C303.76 86.8873 294.549 80.6088 284.324 74.4553C277.379 74.6758 251.644 75.0939 221.26 71.2132C220.937 71.1682 220.649 71.0767 220.389 70.8969C219.659 70.4362 219.195 69.5614 219.271 68.5775C219.39 67.292 220.468 66.3965 221.675 66.5444C244.815 69.4963 265.23 69.9456 276.549 69.8639C268.152 65.0525 259.093 60.3228 249.38 55.7583C244.336 56.2952 217.116 58.8028 184.924 54.7212C184.602 54.6762 184.313 54.5847 184.054 54.4049C183.323 53.9442 182.859 53.0694 182.941 52.1273C183.06 50.8417 184.138 49.9463 185.344 50.0941C208.685 53.0637 229.333 52.51 240.574 51.8023C232.948 48.421 224.943 45.1713 216.518 42.0579C216.518 42.0579 216.518 42.0579 216.479 42.0627C216.206 42.0964 188.115 43.6521 152.621 39.1303C152.299 39.0853 152.01 38.9937 151.75 38.8139C151.02 38.3532 150.556 37.4784 150.638 36.5363C150.757 35.2507 151.835 34.3553 153.041 34.5031C174.169 37.1947 192.652 37.7128 204.053 37.6632C188.391 32.3916 171.443 27.6174 153.124 23.6053C152.88 23.5507 152.669 23.4495 152.459 23.3484C151.64 22.8138 151.199 21.809 151.393 20.8108C151.634 19.5525 152.762 18.7357 153.945 19.0136C171.164 22.7799 187.163 27.2474 202.066 32.1465C191.881 25.3527 175.769 16.1119 157.241 10.7275C157.035 10.6681 156.869 10.6039 156.698 10.4979C155.84 9.96816 155.394 8.92164 155.661 7.87202C155.98 6.60413 157.162 5.90775 158.35 6.22732Z" fill="#008A52"/>
<path d="M-178.475 53.959C-144.91 53.6933 -115.707 66.1189 -114.474 66.6813C-114.316 66.7496 -114.176 66.8722 -114.037 66.9948C-105.163 67.5663 -96.6321 68.3338 -88.4279 69.3358C-100.978 64.0849 -122.118 56.1648 -142.919 52.4559C-144.144 52.3032 -145.003 51.0266 -144.864 49.773C-144.726 48.5193 -143.6 47.6599 -142.394 47.8669C-109.41 53.7293 -75.6382 70.031 -75.3042 70.2062C-74.8116 70.4497 -74.4654 70.849 -74.2104 71.3341C-64.5766 72.8583 -55.4134 74.68 -46.7353 76.668C-57.937 69.4966 -78.0635 58.1047 -99.3625 52.9616C-100.494 52.6304 -101.355 51.4465 -101.145 50.1614C-100.917 48.9148 -99.7936 48.1482 -98.5539 48.4322C-65.4606 56.3117 -36.2486 78.2782 -35.0252 79.2118C-34.8329 79.3571 -34.7127 79.534 -34.6093 79.6724C-24.7368 82.3312 -15.6185 85.228 -7.16303 88.277C-18.0579 80.2372 -36.5083 68.0667 -56.425 61.0802C-57.5903 60.672 -58.2879 59.3708 -57.9357 58.1155C-57.6027 56.9145 -56.3924 56.2477 -55.1742 56.6787C-22.9168 68.0441 5.50191 92.5142 5.78073 92.7594C5.98986 92.9433 6.17981 93.1815 6.33373 93.4354C47.9061 110.503 68.6673 129.235 69.0856 129.602C70.0255 130.476 70.149 131.937 69.3594 132.878C68.5698 133.82 67.179 133.878 66.2391 133.004C66.0828 132.843 62.8426 129.946 56.5432 125.449C56.4352 125.496 56.3079 125.598 56.183 125.607C55.4481 125.79 37.1585 129.886 -0.16974 125.372C-0.258624 125.365 -0.400369 125.336 -0.489246 125.329C-1.5512 125.059 -2.32549 123.975 -2.22544 122.829C-2.13989 121.553 -1.0836 120.632 0.141618 120.785C27.0628 124.067 44.0019 122.672 51.1501 121.75C47.8911 119.595 44.1036 117.213 39.8019 114.734C36.7681 114.959 9.30782 116.823 -26.3694 113.24C-26.5112 113.21 -26.6001 113.203 -26.7058 113.158C-27.7318 112.872 -28.5252 111.842 -28.4612 110.713C-28.4117 109.452 -27.3554 108.531 -26.147 108.646C-0.117539 111.262 21.4609 110.959 32.2128 110.526C23.5832 105.902 13.3223 100.98 1.39934 96.2811C-3.74518 97.5666 -25.9616 102.691 -58.8944 104.011C-59.1082 104.012 -59.3388 103.976 -59.5334 103.923C-60.4536 103.683 -61.1797 102.807 -61.2958 101.757C-61.388 100.466 -60.524 99.4 -59.2941 99.3671C-34.7062 98.3916 -16.2093 95.2607 -6.4868 93.2586C-16.0884 89.7471 -26.7085 86.3596 -38.2651 83.3816C-44.8575 85.5755 -69.4021 93.3236 -99.6298 98.2792C-99.9516 98.3281 -100.254 98.3228 -100.555 98.2247C-101.386 97.9916 -102.081 97.2857 -102.288 96.3209C-102.541 95.0549 -101.764 93.889 -100.565 93.6862C-77.5455 89.9088 -57.8516 84.5108 -47.0274 81.201C-56.448 78.987 -66.4809 77.0407 -77.0924 75.4392C-81.7728 77.3937 -107.144 87.5684 -139.161 92.8474C-139.483 92.8964 -139.786 92.891 -140.086 92.7929C-140.918 92.5598 -141.612 91.854 -141.803 90.9277C-142.056 89.6617 -141.279 88.4958 -140.08 88.293C-116.863 84.4754 -97.2327 78.0496 -86.6612 74.1619C-94.9351 73.0986 -103.535 72.2698 -112.498 71.6912C-112.498 71.6912 -112.498 71.6913 -112.534 71.707C-112.787 71.8172 -139.264 81.328 -174.571 87.1279C-174.893 87.1769 -175.196 87.1715 -175.496 87.0734C-176.327 86.8403 -177.022 86.1345 -177.213 85.2082C-177.466 83.9422 -176.688 82.7763 -175.49 82.5735C-154.473 79.1212 -136.612 74.3408 -125.699 71.038C-142.214 70.4574 -159.819 70.7205 -178.522 72.1056C-178.772 72.123 -179.002 72.0862 -179.233 72.0494C-180.17 71.7707 -180.879 70.9336 -180.978 69.9215C-181.107 68.6468 -180.259 67.5422 -179.046 67.4707C-161.468 66.1641 -144.86 65.878 -129.178 66.3183C-140.879 62.7152 -158.959 58.459 -178.253 58.5885C-178.467 58.5902 -178.645 58.5761 -178.839 58.5235C-179.812 58.2606 -180.538 57.385 -180.582 56.3029C-180.639 54.9967 -179.705 53.9919 -178.475 53.959Z" fill="#008A52"/>
<path d="M322.231 6.861C339.683 31.0778 345.55 60.116 345.77 61.3656C345.801 61.5239 345.783 61.7024 345.764 61.8808C349.906 68.6873 353.726 75.3678 357.207 81.9587C354.619 69.5352 349.581 49.191 341.617 31.7447C341.099 30.7585 341.598 29.331 342.591 28.6422C343.585 27.9535 344.797 28.2304 345.265 29.2368C357.907 56.8895 363.27 91.6877 363.313 92.0406C363.387 92.5518 363.271 93.0547 363.045 93.5454C366.876 101.504 370.246 109.307 373.245 116.863C372.764 104.21 370.802 82.4167 363.637 63.7054C363.299 62.6748 363.728 61.304 364.782 60.6477C365.817 60.028 366.959 60.3616 367.387 61.441C378.601 90.4433 377.451 125.496 377.392 126.972C377.384 127.203 377.316 127.402 377.267 127.564C380.386 136.41 382.941 144.858 385.044 152.921C385.361 139.944 384.833 118.877 379.736 100.01C379.438 98.9061 380.037 97.5801 381.142 97.0456C382.197 96.5313 383.31 96.9907 383.619 98.1471C391.837 128.737 388.437 164.789 388.399 165.146C388.372 165.414 388.294 165.702 388.186 165.974C396.997 206.92 393.882 233.797 393.827 234.332C393.667 235.565 392.655 236.575 391.556 236.594C390.457 236.613 389.7 235.639 389.86 234.406C389.898 234.191 390.365 230.013 390.436 222.606C390.345 222.557 390.205 222.529 390.134 222.443C389.621 222.025 377.204 211.317 361.335 181.357C361.295 181.288 361.244 181.167 361.203 181.098C360.856 180.156 361.256 178.911 362.15 178.263C363.134 177.521 364.354 177.709 364.872 178.695C376.297 200.319 386.032 211.747 390.386 216.359C390.296 212.635 390.103 208.383 389.715 203.697C387.99 201.635 372.5 182.86 356.796 154.685C356.745 154.564 356.704 154.495 356.684 154.389C356.366 153.464 356.717 152.239 357.581 151.575C358.534 150.817 359.755 151.005 360.292 151.954C371.748 172.511 383.065 187.997 388.911 195.535C387.879 186.354 386.226 175.801 383.555 164.181C379.964 161.253 364.77 148.34 346.868 125.246C346.757 125.092 346.665 124.901 346.604 124.727C346.307 123.907 346.579 122.828 347.292 122.082C348.195 121.203 349.424 121.159 350.08 122.032C363.439 139.28 375.253 150.746 381.725 156.549C379.373 147.362 376.407 137.514 372.658 127.244C367.654 123.836 349.332 110.884 330.144 92.0446C329.942 91.8416 329.791 91.6183 329.709 91.3383C329.453 90.5877 329.615 89.6385 330.219 88.8805C331.02 87.8995 332.278 87.7302 333.044 88.4732C347.659 102.818 361.757 113.726 369.758 119.505C366.544 111.268 362.819 102.754 358.542 94.0364C354.697 91.8669 334.164 79.8417 313.818 59.9062C313.617 59.7032 313.465 59.4799 313.383 59.2C313.127 58.4493 313.29 57.5002 313.873 56.7786C314.675 55.7976 315.933 55.6283 316.698 56.3713C331.444 70.8336 346.266 81.0488 354.563 86.2808C351.092 79.6007 347.28 72.8309 343.098 65.9554C343.098 65.9554 343.098 65.9554 343.068 65.9392C342.857 65.8254 322.245 52.5791 299.824 30.5811C299.622 30.3781 299.471 30.1548 299.388 29.8748C299.133 29.1241 299.295 28.175 299.879 27.4535C300.68 26.4724 301.938 26.3031 302.704 27.0462C316.05 40.1402 328.751 50.1061 336.793 55.9545C328.729 43.5911 319.484 30.9671 308.85 18.2527C308.709 18.0822 308.617 17.8914 308.526 17.7007C308.249 16.8445 308.501 15.8022 309.195 15.0928C310.067 14.1971 311.315 14.117 311.992 14.9533C321.991 26.9005 330.74 38.7858 338.478 50.4552C335.114 39.686 328.952 23.8721 318.937 9.93714C318.826 9.7829 318.745 9.6449 318.684 9.47041C318.377 8.59798 318.648 7.51915 319.422 6.80585C320.355 5.94259 321.574 5.98827 322.231 6.861Z" fill="#008A52"/>
<path d="M422.871 281.33C393.116 286.474 364.077 278.93 362.842 278.576C362.684 278.534 362.53 278.438 362.375 278.342C354.349 279.092 346.579 279.607 339.04 279.851C351.498 283.008 372.252 287.449 391.655 287.939C392.782 287.906 393.863 288.993 394.052 290.204C394.241 291.414 393.455 292.394 392.332 292.374C361.568 291.613 327.504 281.054 327.164 280.937C326.666 280.777 326.259 280.449 325.911 280.025C316.973 279.982 308.378 279.587 300.173 278.964C311.911 284.142 332.629 292.027 352.832 293.807C353.92 293.956 354.98 294.955 355.113 296.206C355.221 297.423 354.414 298.315 353.241 298.226C321.878 295.566 290.456 278.963 289.136 278.255C288.929 278.145 288.778 277.994 288.652 277.878C279.219 276.792 270.396 275.37 262.125 273.707C273.806 279.754 293.229 288.622 312.663 292.354C313.8 292.572 314.744 293.706 314.744 294.95C314.747 296.139 313.837 296.948 312.648 296.716C281.159 290.624 249.818 271.528 249.509 271.336C249.278 271.192 249.05 270.994 248.85 270.775C207.665 260.626 184.556 245.863 184.093 245.575C183.04 244.882 182.567 243.513 183.034 242.503C183.501 241.494 184.723 241.237 185.775 241.93C185.954 242.06 189.554 244.339 196.27 247.691C196.355 247.63 196.442 247.515 196.551 247.489C197.158 247.207 212.388 240.652 246.676 239.499C246.756 239.492 246.89 239.5 246.97 239.494C247.981 239.595 248.939 240.512 249.135 241.614C249.377 242.839 248.668 243.867 247.541 243.9C222.806 244.707 208.104 248.5 201.983 250.418C205.415 251.989 209.373 253.699 213.812 255.426C216.451 254.77 240.384 248.998 272.973 247.202C273.107 247.21 273.187 247.203 273.293 247.231C274.275 247.353 275.237 248.215 275.461 249.297C275.731 250.501 275.022 251.53 273.92 251.597C250.143 252.906 231.047 256.338 221.602 258.316C230.421 261.45 240.762 264.628 252.525 267.353C256.776 265.383 275.238 257.279 304.168 251.226C304.357 251.194 304.571 251.195 304.757 251.217C305.635 251.311 306.498 252.036 306.863 253.017C307.266 254.229 306.764 255.367 305.679 255.578C284.077 260.088 268.423 265.756 260.284 269.074C269.689 271.01 279.968 272.679 290.976 273.823C296.287 270.779 316.164 259.844 341.786 250.733C342.06 250.639 342.33 250.6 342.621 250.65C343.418 250.75 344.211 251.319 344.635 252.205C345.175 253.37 344.775 254.591 343.761 254.958C324.25 261.9 308.097 269.896 299.304 274.617C308.225 275.346 317.623 275.732 327.45 275.707C331.121 273.169 351.129 259.809 378.26 250.13C378.534 250.037 378.804 249.997 379.095 250.047C379.892 250.147 380.685 250.716 381.085 251.568C381.625 252.733 381.225 253.954 380.21 254.321C360.534 261.33 344.693 270.293 336.269 275.525C343.885 275.329 351.732 274.863 359.839 274.106C359.839 274.106 359.839 274.106 359.867 274.086C360.064 273.944 381.219 261.054 411.144 250.401C411.417 250.308 411.688 250.269 411.979 250.318C412.776 250.418 413.569 250.987 413.968 251.839C414.509 253.004 414.108 254.225 413.094 254.592C395.281 260.933 380.603 268.076 371.73 272.803C386.547 270.947 402.123 268.132 418.394 264.091C418.611 264.038 418.826 264.039 419.04 264.041C419.942 264.169 420.78 264.86 421.12 265.807C421.552 266.999 421.074 268.171 420.014 268.416C404.722 272.218 390.038 274.91 375.996 276.778C387.289 278.494 404.411 279.901 421.521 276.966C421.71 276.934 421.872 276.921 422.058 276.943C422.988 277.05 423.851 277.776 424.159 278.797C424.534 280.03 423.955 281.12 422.871 281.33Z" fill="#008A52"/>
<g clip-path="url(#clip0_88_3986)">
<path d="M294.107 357.331C268.555 354.116 246.719 349.257 233.307 345.876C253.088 344.635 274.232 344.338 296.801 345.265C298.265 345.318 299.503 344.179 299.564 342.706C299.621 341.241 298.457 340.004 297.016 339.947C275.791 339.072 255.802 339.279 237.006 340.329C250.695 335.849 272.067 330.319 295.226 329.835C296.691 329.806 297.854 328.597 297.822 327.124C297.789 325.663 296.585 324.504 295.108 324.528C254.785 325.37 220.81 340.61 219.39 341.249C219.19 341.338 219.044 341.489 218.881 341.619C208.293 342.551 198.119 343.756 188.353 345.184C202.95 338.75 227.618 328.947 252.29 324.007C253.727 323.722 254.654 322.318 254.374 320.882C254.085 319.437 252.689 318.501 251.248 318.794C212.138 326.632 173.052 346.433 172.661 346.637C172.092 346.93 171.709 347.41 171.469 347.955C160.014 350.031 149.173 352.411 138.943 355.016C151.782 346.421 174.912 332.687 200.052 326.083C201.468 325.712 202.315 324.264 201.94 322.839C201.566 321.423 200.121 320.569 198.705 320.955C159.676 331.202 126.515 357.254 125.124 358.352C124.924 358.511 124.79 358.715 124.652 358.914C113.05 362.283 102.323 365.917 92.459 369.673C104.838 360.11 125.893 345.567 149.218 336.85C150.589 336.333 151.289 334.803 150.777 333.432C150.26 332.052 148.734 331.348 147.358 331.865C109.607 345.982 77.6629 374.951 77.3455 375.244C77.0932 375.476 76.9101 375.749 76.7677 376.038C66.6147 380.424 57.5767 384.864 49.613 389.149C60.4212 377.954 79.0384 360.782 101.139 349.176C102.441 348.505 102.938 346.889 102.258 345.595C101.57 344.301 99.9669 343.784 98.6688 344.472C62.6389 363.39 36.4691 395.648 35.3704 397.019C35.2727 397.141 35.2401 397.284 35.1669 397.414C31.415 399.701 28.0171 401.89 24.9691 403.945C30.4017 394.63 41.2383 379.383 60.4944 363.96C61.6379 363.052 61.8292 361.384 60.9136 360.232C59.9939 359.081 58.3173 358.898 57.1779 359.821C27.6712 383.444 17.3432 406.411 15.6463 410.554C8.43952 415.946 4.80153 419.413 4.62655 419.584C3.58073 420.613 3.56039 422.294 4.58993 423.344C4.98465 423.755 5.48518 423.999 6.01419 424.101C6.83213 424.251 7.70704 424.007 8.34999 423.393C8.5209 423.222 12.1467 419.775 19.329 414.428C19.4715 414.485 19.5976 414.57 19.7523 414.603C19.7767 414.607 19.8214 414.615 19.8784 414.623C21.9375 414.997 44.213 418.688 87.4415 412.409C88.8943 412.206 89.8994 410.851 89.6878 409.402C89.4843 407.953 88.1415 406.94 86.6806 407.152C54.6712 411.803 34.1862 410.839 25.5144 409.988C29.2419 407.412 33.5758 404.568 38.5485 401.552C42.4306 401.715 75.498 402.879 117.839 397.56C119.292 397.381 120.33 396.051 120.143 394.598C119.956 393.145 118.625 392.124 117.18 392.295C86.1923 396.185 60.2543 396.572 47.3057 396.445C57.2552 390.862 69.1499 384.909 83.0629 379.102C84.0436 379.301 85.4964 379.59 87.4171 379.94C98.034 381.869 122.605 385.572 156.132 385.885C157.597 385.894 158.801 384.714 158.809 383.253C158.822 381.788 157.642 380.583 156.177 380.567C126.605 380.29 104.162 377.36 92.284 375.395C103.528 371.041 115.947 366.837 129.559 363.008C135.545 364.684 153.149 369.388 176.43 373.616C185.114 375.191 194.587 376.701 204.545 377.962C205.997 378.146 207.324 377.112 207.507 375.659C207.698 374.198 206.632 372.961 205.212 372.689C177.256 369.156 153.157 363.638 139.859 360.253C150.98 357.412 162.826 354.828 175.433 352.631C180.332 354.389 202.669 362.068 232.31 367.443C238.418 368.554 244.843 369.563 251.48 370.406C252.933 370.589 254.264 369.555 254.451 368.102C254.634 366.642 253.629 365.405 252.152 365.124C223.968 361.563 199.849 354.893 186.762 350.8C196.601 349.314 206.864 348.061 217.567 347.084C217.925 347.194 237.58 353.209 266.358 358.434C274.696 359.948 283.815 361.396 293.431 362.617C294.884 362.796 296.21 361.767 296.398 360.306C296.585 358.853 295.592 357.612 294.099 357.335L294.107 357.331Z" fill="#008A52"/>
<path d="M417.867 375.391C417.342 374.023 415.808 373.332 414.437 373.865C392.8 382.154 370.911 385.088 356.546 386.101C374.358 379.985 392.95 372.644 412.288 363.83C413.623 363.219 414.217 361.644 413.61 360.31C413 358.979 411.425 358.389 410.09 358.995C389.536 368.363 369.837 376.058 351.04 382.37C362.186 374.186 380.576 361.457 403.03 348.822C404.308 348.106 404.76 346.486 404.043 345.204C403.327 343.922 401.704 343.471 400.426 344.191C362.728 365.396 336.257 386.964 335.992 387.184C325.721 390.309 315.747 393.015 306.078 395.347C316.65 386.622 336.476 371.35 361.242 357.408C362.52 356.688 362.972 355.072 362.255 353.787C361.539 352.501 359.916 352.053 358.634 352.777C324.521 371.976 299.6 393.707 294.9 397.914C282.395 400.629 270.455 402.7 259.086 404.263C270.13 396.112 290.371 381.922 314.913 368.115C316.191 367.394 316.646 365.775 315.93 364.497C315.214 363.215 313.59 362.763 312.309 363.488C280.116 381.592 255.244 400.368 248.501 405.593C234.454 407.18 221.367 407.97 209.31 408.173C219.56 401.874 239.207 390.708 266.524 379.285C267.871 378.719 268.506 377.161 267.941 375.81C267.379 374.451 265.825 373.82 264.465 374.385C227.959 389.645 204.801 404.572 199.36 408.214C184.283 408.08 171.021 407.05 159.7 405.63C171.648 400.625 195.804 391.204 225.974 383.13C227.39 382.752 228.232 381.291 227.854 379.875C227.467 378.455 226.026 377.612 224.598 377.991C183.372 389.035 153.181 402.59 149.657 404.201C143.915 403.282 138.833 402.285 134.41 401.3C142.117 397.247 160.71 388.636 192.117 380.864C193.541 380.518 194.412 379.073 194.058 377.645C193.704 376.221 192.267 375.346 190.843 375.712C147.216 386.5 128.114 398.683 127.325 399.196C127.191 399.286 127.109 399.416 126.995 399.522C118.323 397.275 113.672 395.448 113.448 395.359C112.101 394.809 110.539 395.452 109.985 396.812C109.432 398.175 110.079 399.725 111.438 400.279C111.666 400.372 116.342 402.212 125.046 404.486C128.11 407.624 146.316 425.045 182.643 435.828C182.745 435.853 182.839 435.881 182.928 435.893C184.247 436.134 185.561 435.344 185.944 434.038C186.363 432.63 185.561 431.149 184.157 430.729C160.579 423.73 144.778 413.683 136.208 407.099C138.345 407.546 140.599 407.99 142.996 408.425C144.624 408.722 146.325 409.007 148.07 409.292C148.188 409.39 148.278 409.516 148.42 409.593C149.783 410.346 178.59 426.184 213.35 432.5C217.77 433.301 222.291 433.948 226.865 434.392C228.326 434.53 229.62 433.464 229.762 432.007C229.896 430.542 228.851 429.191 227.373 429.106C202.534 426.697 178.806 417.801 164.567 411.506C173.556 412.474 183.6 413.178 194.66 413.414C194.904 413.634 195.185 413.817 195.511 413.939C195.767 414.037 212.341 420.088 234.767 424.157C247.496 426.469 262.113 428.141 276.698 427.722C278.171 427.677 279.322 426.453 279.278 424.988C279.237 423.527 278.028 422.367 276.547 422.412C251.655 423.124 226.653 417.577 211.58 413.39C222.14 413.154 233.437 412.478 245.458 411.225C245.669 411.359 245.873 411.502 246.125 411.575C246.825 411.779 254.166 413.886 265.369 415.917C281.259 418.802 304.91 421.537 328.374 418.473C329.831 418.285 330.857 416.951 330.665 415.498C330.478 414.045 329.151 413.008 327.686 413.207C301.887 416.568 275.257 412.552 260.132 409.435C270.618 407.99 281.557 406.13 292.987 403.729C293.354 404.083 293.793 404.364 294.322 404.458C294.408 404.474 294.489 404.49 294.574 404.494C295.006 404.531 338.678 408.137 377.849 400.653C379.294 400.376 380.234 398.985 379.957 397.548C379.688 396.108 378.293 395.163 376.848 395.44C352.115 400.161 325.526 400.376 309.582 399.921C319.169 397.564 329.046 394.838 339.207 391.713C339.309 391.745 339.398 391.806 339.508 391.827C339.626 391.847 339.756 391.867 339.878 391.867C341.449 391.928 378.651 393.239 416.325 378.809C417.692 378.284 418.38 376.746 417.855 375.374L417.867 375.391Z" fill="#008A52"/>
<path d="M285.097 491.277C248.668 473.942 211.483 472.326 209.92 472.273C209.709 472.265 209.521 472.33 209.322 472.367C199.425 468.448 189.781 464.953 180.397 461.848C196.325 462.645 222.775 464.957 247.053 471.606C248.477 472.066 249.938 471.158 250.321 469.75C250.711 468.334 249.877 466.873 248.461 466.479C209.994 455.951 166.179 456.11 165.74 456.114C165.097 456.114 164.531 456.378 164.075 456.761C152.909 453.481 142.154 450.747 131.846 448.488C147.171 446.567 173.984 444.667 199.434 450.043C200.821 450.274 202.274 449.428 202.579 447.992C202.884 446.559 201.965 445.155 200.528 444.846C161.076 436.414 119.736 444.907 117.99 445.273C117.742 445.326 117.534 445.448 117.319 445.562C105.436 443.369 94.217 441.806 83.714 440.74C99.0717 437.749 124.424 434.192 149.169 436.862C150.634 437.021 151.94 435.963 152.095 434.51C152.254 433.045 151.22 431.718 149.739 431.576C109.664 427.266 68.1244 438.823 67.7134 438.945C67.3797 439.039 67.0908 439.198 66.8304 439.397C21.8602 436.821 -7.12161 443.296 -15.0039 445.363V450.865C-13.5064 450.433 -8.98536 449.216 -1.72568 447.931C-1.61987 448.049 -1.54256 448.191 -1.41234 448.293C-0.663581 448.862 17.4246 462.519 60.0631 476.697C60.1851 476.733 60.3113 476.766 60.4293 476.786C61.7111 477.018 63.0011 476.286 63.4203 475.016C63.8801 473.62 63.1313 472.123 61.7396 471.655C31.008 461.437 13.1437 451.377 5.79445 446.738C10.2748 446.103 15.4103 445.505 21.1969 445.037C24.375 446.811 53.483 462.763 93.8914 477.067C94.0298 477.108 94.1641 477.148 94.3024 477.173C95.568 477.401 96.8376 476.693 97.2852 475.443C97.7695 474.064 97.0452 472.55 95.6616 472.054C66.1752 461.624 42.7969 450.315 31.301 444.394C42.6952 443.861 55.9978 443.869 71.0462 444.919C76.08 448.907 98.034 465.644 133.356 483.798C133.596 483.92 133.84 484.005 134.096 484.05C135.215 484.253 136.383 483.716 136.933 482.646C137.6 481.34 137.087 479.741 135.781 479.077C109.42 465.53 90.6522 452.818 80.9347 445.741C92.9433 446.893 105.937 448.704 119.829 451.389C126.068 457.066 149.43 477.783 180.19 498.427C180.503 498.63 180.841 498.769 181.191 498.838C182.2 499.021 183.266 498.61 183.877 497.698C184.699 496.482 184.365 494.834 183.148 494.02C159.713 478.296 140.624 462.531 130.267 453.55C141.482 456 153.23 459.007 165.487 462.694C169.752 467.166 192.939 490.858 225.526 512.727C225.84 512.938 226.185 513.076 226.535 513.138C227.54 513.321 228.611 512.91 229.217 512.006C230.039 510.79 229.714 509.133 228.489 508.315C204.866 492.461 186.282 475.663 176.442 466.141C185.903 469.225 195.641 472.709 205.643 476.64C205.652 476.648 205.652 476.656 205.66 476.664C205.9 476.9 230.609 500.478 266.521 524.58C266.838 524.792 267.172 524.922 267.522 524.991C268.539 525.175 269.601 524.764 270.207 523.86C271.025 522.639 270.704 520.987 269.487 520.173C248.087 505.817 230.739 491.664 220.265 482.63C238.511 490.398 257.552 499.619 277.321 510.578C277.577 510.72 277.85 510.818 278.13 510.867C279.221 511.066 280.36 510.562 280.934 509.536C281.642 508.254 281.178 506.639 279.892 505.931C261.32 495.631 243.366 486.854 226.1 479.362C240.343 481.498 261.914 486.142 282.826 496.099C283.046 496.197 283.27 496.274 283.494 496.311C284.65 496.518 285.842 495.945 286.367 494.842C286.998 493.511 286.436 491.932 285.109 491.297L285.097 491.277Z" fill="#008A52"/>
<path d="M227.65 575.134C171.933 589.795 142.976 638.237 162.032 694.349C171.563 720.812 189.089 747.205 214.881 759.344C235.626 769.107 268.954 768.451 288.011 763.161C310.241 755.751 340.92 743.425 352.591 709.698C363.883 677.058 362.752 654.913 348.355 629.769C329.44 596.742 309.521 581.958 282.025 576.082C274.598 563.678 232.582 565.75 227.65 575.134Z" fill="#FF4700"/>
<path d="M265.015 547.715H261.682C262.04 544.752 262.223 541.761 262.227 538.782C262.24 533.407 261.943 526.961 258.817 522.354C255.639 517.663 248.986 516.519 244.754 520.597C240.713 524.491 240.334 531.238 240.408 536.487C240.461 540.227 240.831 544.016 241.49 547.71H238.096C238.096 547.71 230.597 561.257 221.876 576.851C223.992 582.532 234.499 582.402 242.174 575.569C247.012 585.486 259.521 583.834 262.004 575.569C272.625 585.486 281.842 575.988 281.842 575.988L265.011 547.71L265.015 547.715ZM245.812 547.715C245.673 546.994 245.547 546.27 245.437 545.546C245.258 544.365 245.246 544.28 245.104 542.998C244.969 541.802 244.864 540.605 244.786 539.405C244.624 536.797 244.603 534.168 244.86 531.563C245.067 529.468 245.616 526.896 246.618 525.134C247.521 523.551 248.831 522.534 250.398 522.371C251.537 522.253 252.311 522.354 253.096 522.704C253.043 522.68 254.138 523.368 253.885 523.168C254.272 523.474 254.618 523.836 254.931 524.218C254.964 524.267 255.163 524.54 255.2 524.597C255.334 524.804 255.464 525.012 255.586 525.223C255.896 525.765 256.128 526.269 256.258 526.615C256.705 527.771 257.023 528.975 257.271 530.188C257.759 532.601 257.926 535.079 257.963 537.659C257.999 540.215 257.894 542.774 257.674 545.318C257.605 546.119 257.523 546.917 257.43 547.719H245.812V547.715Z" fill="#190209"/>
<path d="M257.946 733.732C285.037 733.732 306.998 705.589 306.998 670.873C306.998 636.157 285.037 608.014 257.946 608.014C230.856 608.014 208.895 636.157 208.895 670.873C208.895 705.589 230.856 733.732 257.946 733.732Z" fill="#008A52"/>
<path d="M291.567 667.573C289.594 667.691 288.121 668.732 287.339 670.482H261.723C265.764 666.34 269.801 662.197 273.841 658.054C274.96 656.907 276.08 655.759 277.199 654.612C277.748 654.046 278.301 653.48 278.851 652.919C279.547 652.203 279.657 652.109 280.613 652.166C282.306 652.268 283.832 651.881 284.939 650.494C287.152 647.726 285.402 643.462 281.887 643.047C278.102 642.599 275.856 646.469 277.264 649.672C271.306 655.784 265.349 661.892 259.391 668.004V640.772C263.668 638.786 262.858 631.946 257.69 631.946C252.522 631.946 251.712 638.786 255.989 640.772V667.703C250.365 661.351 244.742 654.994 239.118 648.642C240.904 645.472 238.666 641.248 234.76 641.663C231.211 642.038 229.396 646.323 231.634 649.118C232.81 650.587 234.133 650.644 235.834 650.807C236.151 650.64 236.42 650.697 236.644 650.97C236.945 651.307 237.242 651.645 237.543 651.987C237.991 652.496 238.442 653.004 238.89 653.509C239.94 654.693 240.986 655.877 242.036 657.061C245.995 661.534 249.954 666.01 253.918 670.482H228.501C227.602 668.667 225.836 667.479 223.719 667.764C221.367 668.081 219.618 670.205 219.74 672.566C219.996 677.673 226.82 678.21 228.619 673.884H253.662C247.7 680 241.734 686.116 235.773 692.233C231.354 690.662 227.15 696.066 230.784 699.7C234.458 703.375 239.911 699.045 238.206 694.605C244.135 688.526 250.064 682.442 255.993 676.362V700.974C251.716 702.959 252.526 709.8 257.694 709.8C262.862 709.8 263.672 702.959 259.395 700.974V676.663C263.168 680.924 266.94 685.185 270.712 689.449C271.762 690.633 272.812 691.822 273.862 693.006C274.285 693.482 274.794 693.97 275.172 694.483C275.746 695.268 275.608 695.179 275.591 696.099C275.563 697.8 275.913 699.285 277.329 700.384C280.124 702.557 284.369 700.746 284.731 697.218C285.118 693.453 281.272 691.268 278.094 692.66C272.551 686.397 267.005 680.135 261.463 673.872H287.339C288.768 676.948 292.943 677.905 295.209 674.991C297.61 671.898 295.238 667.772 291.567 667.56V667.573Z" fill="#EFE9CB"/>
<path d="M334.727 679.199C333.213 678.938 331.948 677.99 331.117 676.737C330.702 676.106 330.401 675.398 330.234 674.641C330.149 674.263 330.104 673.872 330.084 673.473C330.027 673.07 330.011 672.655 330.031 672.236C330.19 668.924 332.835 666.201 335.911 666.152C338.987 666.104 341.335 669.249 341.132 673.168C341.108 673.652 341.042 674.12 340.945 674.572C340.811 675.015 340.631 675.439 340.428 675.837C340.025 676.631 339.508 677.319 338.914 677.864C337.73 678.955 336.241 679.459 334.727 679.199Z" fill="#EFE9CB"/>
<path d="M327.313 703.436C325.921 702.785 324.969 701.543 324.537 700.131C324.151 698.731 323.976 697.03 324.586 695.468C325.128 693.881 326.361 692.697 327.557 691.875C328.802 691.073 330.324 690.739 331.809 691.142C333.295 691.541 334.454 692.632 335.106 694.129C335.809 695.639 335.683 697.458 335.049 699.297C334.345 701.108 333.266 702.581 331.756 703.281C330.291 704.005 328.704 704.091 327.313 703.436Z" fill="#EFE9CB"/>
<path d="M316.325 720.685C315.137 719.68 314.616 718.293 314.473 716.734C314.364 715.196 314.771 713.605 315.78 712.262C316.846 710.96 318.075 709.959 319.532 709.535C320.968 709.108 322.547 709.198 323.874 709.979C325.2 710.756 326.014 712.103 326.218 713.702C326.413 715.289 326.087 717.19 324.867 718.712C323.707 720.27 322.148 721.308 320.618 721.67C319.108 722.061 317.489 721.67 316.329 720.685H316.325Z" fill="#EFE9CB"/>
<path d="M301.175 734.436C299.466 731.876 300.223 728.185 302.884 726.208C305.338 723.978 309.098 723.933 311.283 726.102C313.464 728.267 312.891 732.185 309.969 734.806C306.831 737.17 302.884 736.991 301.175 734.436Z" fill="#EFE9CB"/>
<path d="M282.928 743.677C282.419 742.224 282.639 740.662 283.335 739.335C284.031 737.988 285.252 736.983 286.733 736.186C289.716 734.749 293.394 735.766 294.892 738.346C296.475 741.093 294.859 744.646 291.311 746.343C289.586 747.25 287.653 747.197 286.135 746.701C284.601 746.188 283.441 745.13 282.932 743.677H282.928Z" fill="#EFE9CB"/>
<path d="M262.907 747.82C262.801 746.286 263.424 744.861 264.449 743.803C265.479 742.713 266.891 741.797 268.551 741.565C271.852 741.191 275.054 742.782 275.84 745.785C276.617 748.735 274.191 752.101 270.281 752.573C268.356 752.849 266.537 752.552 265.202 751.649C263.859 750.713 263.013 749.358 262.907 747.824V747.82Z" fill="#EFE9CB"/>
<path d="M242.483 746.636C243.118 743.624 246.292 741.577 249.564 742.086C252.868 742.338 255.538 744.906 255.509 748.007C255.485 751.059 252.278 753.48 248.363 753.163C244.477 752.581 241.844 749.643 242.479 746.636H242.483Z" fill="#EFE9CB"/>
<path d="M223.129 740.023C223.813 738.647 225.083 737.712 226.519 737.284C227.964 736.857 229.547 736.999 231.15 737.512C232.725 738.086 233.938 739.197 234.682 740.544C235.415 741.927 235.736 743.368 235.297 744.861C234.865 746.318 233.722 747.539 232.249 748.035C230.768 748.569 228.896 748.552 227.073 747.881C225.221 747.27 223.899 745.879 223.199 744.43C222.499 742.973 222.442 741.402 223.129 740.027V740.023Z" fill="#EFE9CB"/>
<path d="M206.177 728.592C207.198 727.445 208.659 726.887 210.14 726.875C211.593 726.903 213.273 727.229 214.592 728.263C215.959 729.235 216.736 730.765 217.188 732.133C217.595 733.557 217.477 735.115 216.667 736.422C215.857 737.728 214.482 738.525 212.862 738.717C211.206 738.969 209.505 738.322 207.926 737.191C206.392 735.998 205.294 734.542 205.057 732.898C204.781 731.29 205.155 729.744 206.177 728.596V728.592Z" fill="#EFE9CB"/>
<path d="M192.772 713.145C194.082 712.286 195.543 712.197 197.077 712.498C198.583 712.828 199.995 713.67 201 715.017C201.952 716.405 202.542 717.886 202.542 719.391C202.542 720.893 202.009 722.374 200.886 723.424C199.763 724.474 198.241 724.873 196.646 724.612C195.059 724.356 193.35 723.489 192.235 721.89C191.067 720.336 190.517 718.549 190.603 716.978C190.652 715.424 191.514 713.967 192.776 713.141L192.772 713.145Z" fill="#EFE9CB"/>
<path d="M183.918 694.703C186.86 693.799 190.176 695.582 191.303 698.699C192.74 701.682 191.714 705.299 189.008 706.777C186.31 708.25 182.717 706.585 181.036 703.029C179.673 699.338 180.975 695.606 183.913 694.707L183.918 694.703Z" fill="#EFE9CB"/>
<path d="M180.32 674.572C181.858 674.503 183.282 675.158 184.344 676.208C184.873 676.733 185.313 677.363 185.63 678.067C185.984 678.767 186.289 679.536 186.411 680.367C186.668 682.023 186.277 683.622 185.455 684.932C184.601 686.243 183.526 687.219 181.992 687.561C180.523 687.887 178.871 687.488 177.723 686.438C176.543 685.4 175.66 683.756 175.367 681.836C175.229 680.875 175.221 679.943 175.416 679.085C175.652 678.222 176.018 677.441 176.49 676.782C177.43 675.463 178.786 674.649 180.324 674.58L180.32 674.572Z" fill="#EFE9CB"/>
<path d="M181.988 654.189C183.523 654.53 184.597 655.507 185.451 656.817C186.273 658.128 186.664 659.723 186.408 661.383C186.29 662.213 185.98 662.982 185.626 663.682C185.313 664.386 184.874 665.017 184.34 665.542C183.278 666.592 181.85 667.247 180.316 667.178C178.778 667.109 177.427 666.295 176.483 664.976C176.011 664.317 175.644 663.536 175.408 662.673C175.213 661.815 175.221 660.883 175.359 659.922C175.648 657.997 176.536 656.358 177.716 655.32C178.863 654.27 180.519 653.867 181.984 654.197L181.988 654.189Z" fill="#EFE9CB"/>
<path d="M189.012 634.973C191.714 636.45 192.74 640.064 191.307 643.051C190.18 646.164 186.859 647.946 183.921 647.047C180.979 646.143 179.681 642.412 181.044 638.725C182.725 635.172 186.318 633.504 189.016 634.977L189.012 634.973Z" fill="#EFE9CB"/>
<path d="M200.882 618.317C202.005 619.367 202.538 620.853 202.538 622.35C202.538 623.856 201.948 625.337 200.996 626.725C199.995 628.072 198.583 628.914 197.073 629.243C195.539 629.549 194.078 629.455 192.768 628.596C191.507 627.77 190.644 626.314 190.595 624.759C190.51 623.188 191.063 621.402 192.227 619.847C193.342 618.248 195.051 617.381 196.638 617.125C198.233 616.869 199.755 617.263 200.878 618.313L200.882 618.317Z" fill="#EFE9CB"/>
<path d="M216.667 605.324C217.477 606.63 217.595 608.189 217.188 609.613C216.736 610.98 215.955 612.51 214.592 613.483C213.273 614.517 211.593 614.838 210.14 614.871C208.659 614.858 207.202 614.301 206.177 613.153C205.155 612.006 204.781 610.459 205.057 608.852C205.298 607.208 206.392 605.751 207.926 604.559C209.505 603.428 211.206 602.777 212.862 603.033C214.482 603.224 215.857 604.022 216.667 605.328V605.324Z" fill="#EFE9CB"/>
<path d="M235.297 596.884C235.74 598.378 235.415 599.818 234.682 601.202C233.934 602.549 232.725 603.66 231.15 604.234C229.547 604.742 227.964 604.889 226.519 604.461C225.083 604.034 223.813 603.102 223.129 601.723C222.442 600.347 222.499 598.772 223.199 597.32C223.899 595.871 225.217 594.479 227.073 593.869C228.9 593.197 230.768 593.181 232.249 593.714C233.726 594.211 234.869 595.432 235.297 596.888V596.884Z" fill="#EFE9CB"/>
<path d="M255.513 593.739C255.541 596.835 252.868 599.403 249.568 599.66C246.296 600.172 243.122 598.121 242.487 595.11C241.852 592.099 244.485 589.165 248.371 588.583C252.282 588.269 255.493 590.687 255.517 593.739H255.513Z" fill="#EFE9CB"/>
<path d="M275.835 595.96C275.05 598.96 271.847 600.551 268.547 600.18C266.887 599.948 265.475 599.033 264.445 597.942C263.42 596.884 262.797 595.46 262.903 593.926C263.009 592.392 263.855 591.041 265.198 590.101C266.533 589.193 268.352 588.9 270.276 589.173C274.187 589.645 276.612 593.01 275.835 595.96Z" fill="#EFE9CB"/>
<path d="M294.888 603.399C293.394 605.979 289.716 606.997 286.729 605.56C285.248 604.762 284.027 603.757 283.331 602.41C282.635 601.084 282.419 599.521 282.924 598.068C283.433 596.616 284.592 595.558 286.126 595.045C287.644 594.548 289.577 594.496 291.303 595.403C294.851 597.1 296.467 600.656 294.884 603.399H294.888Z" fill="#EFE9CB"/>
<path d="M311.849 618.387C309.663 620.556 305.903 620.511 303.45 618.281C300.788 616.307 300.031 612.612 301.74 610.053C303.45 607.493 307.397 607.318 310.534 609.682C313.46 612.303 314.03 616.222 311.849 618.387Z" fill="#EFE9CB"/>
<path d="M325.787 634.973C324.46 635.75 322.885 635.844 321.445 635.417C319.992 634.993 318.759 633.992 317.693 632.69C316.684 631.347 316.277 629.756 316.387 628.218C316.529 626.663 317.05 625.276 318.238 624.267C319.398 623.282 321.017 622.891 322.527 623.282C324.061 623.644 325.616 624.682 326.776 626.24C327.996 627.758 328.322 629.659 328.127 631.25C327.919 632.853 327.109 634.196 325.783 634.973H325.787Z" fill="#EFE9CB"/>
<path d="M335.809 654.864C334.324 655.263 332.802 654.929 331.557 654.132C330.365 653.31 329.128 652.125 328.586 650.538C327.976 648.98 328.151 647.275 328.537 645.875C328.973 644.463 329.921 643.222 331.313 642.571C332.704 641.92 334.291 642.001 335.756 642.725C337.266 643.425 338.345 644.894 339.049 646.709C339.679 648.549 339.809 650.368 339.106 651.877C338.454 653.375 337.295 654.465 335.809 654.864Z" fill="#EFE9CB"/>
<path d="M384.478 597.189C379.44 597.189 352.953 574.67 349.091 523.197C346.332 486.394 358.866 454.258 369.365 438.07C373.548 431.621 374.793 427.799 378.614 427.075C383.127 426.221 384.755 430.473 389.96 436.048C403.864 450.95 421.078 483.932 419.47 519.282C417.403 564.777 392.967 597.185 384.478 597.185V597.189Z" fill="#FAC900"/>
<path d="M386.668 422.733H385.052C385.227 421.297 385.312 419.848 385.317 418.403C385.321 415.799 385.178 412.674 383.664 410.44C382.122 408.165 378.899 407.611 376.844 409.589C374.887 411.477 374.704 414.749 374.736 417.292C374.761 419.103 374.94 420.943 375.261 422.733H373.613C373.613 422.733 370.415 434.07 366.964 441.985C370.109 442.539 372.946 440.866 375.733 437.016C377.149 442.087 384.568 441.367 385.74 436.809C390.639 441.814 392.434 440.744 393.703 440.418C389.26 432.251 386.659 422.729 386.659 422.729L386.668 422.733ZM377.357 422.733C377.292 422.383 377.227 422.033 377.174 421.683C377.088 421.109 377.08 421.069 377.011 420.45C376.946 419.872 376.893 419.29 376.856 418.709C376.779 417.443 376.767 416.169 376.893 414.908C376.995 413.89 377.259 412.645 377.748 411.791C378.183 411.022 378.822 410.529 379.579 410.452C380.132 410.395 380.507 410.444 380.885 410.615C380.861 410.602 381.39 410.936 381.268 410.838C381.455 410.985 381.622 411.16 381.776 411.347C381.792 411.372 381.89 411.502 381.906 411.53C381.972 411.632 382.033 411.73 382.094 411.835C382.244 412.096 382.354 412.344 382.419 412.511C382.635 413.072 382.79 413.654 382.912 414.244C383.148 415.412 383.229 416.617 383.245 417.866C383.266 419.103 383.213 420.344 383.107 421.577C383.074 421.964 383.034 422.355 382.989 422.741H377.357V422.733Z" fill="#190209"/>
<path d="M374.993 590.487C383.526 588.404 391.901 585.718 400.064 582.483C402.453 578.841 404.849 574.593 407.112 569.799C394.839 575.508 381.992 579.936 368.706 582.878C370.875 585.909 373.011 588.445 374.993 590.487Z" fill="#EFE9CB"/>
<path d="M357.604 562.071C358.772 565.05 360.005 567.825 361.279 570.405C363.277 570.055 365.263 569.689 367.224 569.302C383.217 566.128 398.713 560.793 413.375 553.717C414.522 550.062 415.556 546.229 416.435 542.229C400.247 550.823 382.948 557.184 364.872 560.773C362.484 561.249 360.05 561.676 357.604 562.075V562.071Z" fill="#EFE9CB"/>
<path d="M419.556 513.097C401.911 523.132 382.855 530.493 362.85 534.469C358.87 535.258 354.792 535.962 350.687 536.499C351.183 539.511 351.757 542.408 352.4 545.179C356.729 544.589 361.023 543.832 365.206 542.998C384.084 539.25 402.273 532.503 419.214 523.416C419.32 522.025 419.405 520.617 419.47 519.201C419.564 517.158 419.588 515.123 419.56 513.101L419.556 513.097Z" fill="#EFE9CB"/>
<path d="M418.197 497.458C417.708 494.349 417.098 491.293 416.386 488.294C398.428 498.659 378.993 506.256 358.56 510.317C355.329 510.96 352.037 511.546 348.713 512.031C348.7 514.956 348.778 517.919 348.953 520.914C352.994 520.34 357.002 519.624 360.913 518.847C381.015 514.855 400.336 507.457 418.197 497.458Z" fill="#EFE9CB"/>
<path d="M412.56 475.301C411.555 472.444 410.465 469.673 409.313 466.995C393.345 475.386 376.303 481.604 358.507 485.14C356.074 485.625 353.6 486.076 351.109 486.479C350.568 489.454 350.104 492.506 349.734 495.623C353.494 495.069 357.217 494.398 360.859 493.674C378.883 490.093 396.279 483.777 412.56 475.305V475.301Z" fill="#EFE9CB"/>
<path d="M403.051 454.344C401.529 451.646 399.962 449.114 398.383 446.758C385.536 453.049 372.034 457.929 358.04 461.16C356.896 464.244 355.81 467.496 354.813 470.894C354.878 470.881 354.947 470.869 355.016 470.857C371.697 467.544 387.836 461.884 403.051 454.344Z" fill="#EFE9CB"/>
<path d="M64.2378 826.146C52.5262 816.465 56.5996 774.291 56.5996 774.291L94.949 727.62L133.298 774.917C133.298 774.917 137.84 816.705 126.083 826.146C120.48 830.647 71.18 831.888 64.2337 826.146H64.2378Z" fill="#FF4700"/>
<path d="M54.5817 778.975C52.5755 780.611 46.6953 783.805 44.2862 776.871C41.3726 768.492 62.0163 749.171 72.1693 736.389C84.9755 720.267 94.4733 708.559 97.7858 708.592C107.459 708.685 110.144 726.782 128.485 748.292C147.704 770.836 143.598 778.812 135.736 776.936C126.78 774.8 96.9638 731.644 96.9638 731.644C96.9638 731.644 64.1405 771.198 54.5857 778.979L54.5817 778.975Z" fill="#EFE9CB"/>
<path d="M107.828 794.332H92.658V825.162H107.828V794.332Z" fill="#190209"/>
<path d="M84.5397 777.567H70.0854V792.021H84.5397V777.567Z" fill="#EFE9CB"/>
<path d="M98.1968 697.425C94.2902 697.425 91.1243 700.591 91.1243 704.498C91.1243 708.404 94.2902 711.57 98.1968 711.57C102.103 711.57 105.269 708.404 105.269 704.498C105.269 700.591 102.103 697.425 98.1968 697.425ZM98.1968 708.225C96.1377 708.225 94.4693 706.557 94.4693 704.498C94.4693 702.439 96.1377 700.77 98.1968 700.77C100.256 700.77 101.924 702.439 101.924 704.498C101.924 706.557 100.256 708.225 98.1968 708.225Z" fill="#EFE9CB"/>
<path d="M181.813 409.272C181.813 409.272 217.135 421.415 218.608 453.794C220.081 486.174 192.853 496.107 174.456 495.375C156.059 494.638 126.869 477.82 136.925 445.334C146.492 414.428 172.617 409.276 172.617 409.276H181.817L181.813 409.272Z" fill="#FAC900"/>
<path d="M181.052 400.991H179.803C179.937 399.88 180.007 398.761 180.007 397.646C180.011 395.631 179.901 393.218 178.729 391.493C177.536 389.735 175.046 389.308 173.463 390.834C171.949 392.295 171.807 394.822 171.835 396.783C171.856 398.183 171.994 399.603 172.242 400.987H170.969C170.969 400.987 168.161 406.061 164.893 411.901C165.687 414.029 169.622 413.98 172.495 411.42C174.305 415.136 178.993 414.517 179.921 411.42C183.901 415.136 187.352 411.579 187.352 411.579L181.048 400.987L181.052 400.991ZM173.858 400.991C173.805 400.722 173.76 400.449 173.719 400.177C173.65 399.733 173.646 399.701 173.593 399.225C173.544 398.777 173.504 398.329 173.475 397.878C173.414 396.901 173.406 395.916 173.504 394.94C173.581 394.154 173.789 393.19 174.163 392.531C174.501 391.936 174.993 391.558 175.579 391.497C176.006 391.452 176.295 391.489 176.588 391.623C176.568 391.615 176.979 391.871 176.885 391.798C177.028 391.912 177.162 392.046 177.276 392.189C177.288 392.209 177.361 392.307 177.378 392.331C177.427 392.408 177.475 392.486 177.52 392.567C177.634 392.771 177.724 392.958 177.772 393.088C177.939 393.519 178.057 393.971 178.151 394.427C178.334 395.33 178.395 396.258 178.411 397.227C178.428 398.183 178.383 399.143 178.302 400.095C178.277 400.397 178.245 400.694 178.212 400.995H173.858V400.991Z" fill="#190209"/>
<path d="M202.087 460.281C202.087 456.928 200.28 454.006 197.594 452.411C199.336 450.742 200.427 448.398 200.427 445.798C200.427 441.57 197.558 438.022 193.663 436.968C194.494 435.588 194.982 433.981 194.982 432.251C194.982 427.193 190.88 423.091 185.822 423.091C184.011 423.091 182.33 424.283 180.906 425.191C179.234 423.413 176.861 421.638 174.228 421.638C169.618 421.638 165.813 425.049 165.174 429.48C164.971 429.468 164.767 429.447 164.56 429.447C159.501 429.447 155.399 433.549 155.399 438.608C155.399 439.857 155.652 441.045 156.103 442.132C153.328 443.706 151.456 446.681 151.456 450.099C151.456 452.484 152.372 454.645 153.865 456.273C152.376 457.9 151.456 460.065 151.456 462.446C151.456 466.32 153.865 469.624 157.263 470.963C156.938 471.903 156.751 472.912 156.751 473.966C156.751 479.024 160.852 483.126 165.911 483.126C167.05 483.126 168.136 482.91 169.142 482.528C170.635 485.559 173.748 487.651 177.358 487.651C180.967 487.651 183.958 485.645 185.484 482.711C186.347 482.98 187.262 483.126 188.215 483.126C193.273 483.126 197.375 479.024 197.375 473.966C197.375 472.11 196.821 470.389 195.873 468.948C199.487 467.72 202.087 464.309 202.087 460.281Z" fill="#FF4700"/>
<path d="M176.771 479.797C187.768 479.797 196.683 468.374 196.683 454.283C196.683 440.191 187.768 428.768 176.771 428.768C165.775 428.768 156.86 440.191 156.86 454.283C156.86 468.374 165.775 479.797 176.771 479.797Z" fill="#EFE9CB"/>
<path d="M191.832 452.801C190.949 452.854 190.29 453.322 189.936 454.104H178.46C180.271 452.248 182.078 450.392 183.889 448.537C184.389 448.024 184.89 447.507 185.394 446.994C185.643 446.742 185.887 446.49 186.135 446.238C186.448 445.916 186.497 445.875 186.924 445.9C187.681 445.945 188.365 445.77 188.861 445.151C189.854 443.914 189.069 442.001 187.494 441.814C185.797 441.615 184.792 443.348 185.423 444.781C182.753 447.519 180.084 450.254 177.414 452.993V440.793C179.331 439.902 178.969 436.837 176.653 436.837C174.338 436.837 173.976 439.902 175.892 440.793V452.858C173.373 450.014 170.855 447.165 168.336 444.321C169.137 442.901 168.132 441.008 166.382 441.196C164.791 441.363 163.981 443.283 164.983 444.537C165.512 445.196 166.102 445.22 166.863 445.293C167.005 445.22 167.123 445.245 167.225 445.367C167.359 445.517 167.493 445.672 167.628 445.822C167.827 446.05 168.03 446.278 168.23 446.506C168.698 447.035 169.17 447.568 169.638 448.097C171.412 450.103 173.186 452.106 174.961 454.112H163.575C163.172 453.298 162.382 452.765 161.434 452.895C160.38 453.037 159.599 453.99 159.652 455.048C159.766 457.335 162.822 457.575 163.627 455.638H174.847C172.177 458.376 169.504 461.119 166.834 463.858C164.856 463.154 162.972 465.575 164.6 467.203C166.248 468.851 168.69 466.91 167.925 464.92C170.582 462.197 173.235 459.471 175.892 456.749V467.772C173.976 468.664 174.338 471.728 176.653 471.728C178.969 471.728 179.331 468.664 177.414 467.772V456.883C179.103 458.791 180.796 460.7 182.485 462.608C182.957 463.142 183.425 463.671 183.897 464.204C184.088 464.419 184.316 464.635 184.483 464.867C184.739 465.221 184.678 465.18 184.67 465.591C184.658 466.352 184.816 467.02 185.447 467.512C186.701 468.485 188.601 467.675 188.764 466.096C188.939 464.407 187.213 463.43 185.793 464.053C183.311 461.249 180.824 458.441 178.342 455.638H189.936C190.575 457.017 192.446 457.444 193.46 456.138C194.534 454.755 193.472 452.903 191.828 452.81L191.832 452.801Z" fill="#3264BC"/>
<path d="M296.381 474.731C283.249 474.731 249.348 408.214 264.876 377.751C280.405 347.284 327.475 355.093 333.294 381.633C341.058 417.04 308.813 474.731 296.381 474.731Z" fill="#FF9DBE"/>
<path d="M333.66 383.517C325.058 381.621 314.701 387.708 311.747 394.187C305.305 380.306 288.946 380.966 281.341 395.009C274.565 385.328 267.607 384.168 262.048 385.771C254.679 418.513 284.303 474.731 296.377 474.731C308.451 474.731 339.923 419.046 333.656 383.517H333.66Z" fill="#3264BC"/>
<path d="M296.283 474.731C297.48 474.731 298.863 474.19 300.373 473.189C307.425 454.665 311.649 394.187 311.649 394.187C305.207 380.306 288.849 380.966 281.243 395.009C281.243 395.009 284.995 454.401 292.035 473.01C293.598 474.121 295.034 474.731 296.283 474.731Z" fill="#A0CCB7"/>
<path d="M303.808 347.023H302.257C302.424 345.644 302.509 344.252 302.514 342.864C302.518 340.362 302.379 337.363 300.926 335.218C299.445 333.033 296.349 332.5 294.379 334.4C292.499 336.215 292.32 339.357 292.356 341.798C292.381 343.54 292.552 345.302 292.861 347.023H291.282C291.282 347.023 287.791 353.327 283.729 360.59C284.714 363.235 289.606 363.174 293.178 359.992C295.429 364.607 301.256 363.838 302.412 359.992C307.356 364.607 311.645 360.188 311.645 360.188L303.812 347.023H303.808ZM294.867 347.023C294.802 346.69 294.745 346.352 294.692 346.014C294.607 345.465 294.603 345.424 294.538 344.83C294.477 344.272 294.424 343.715 294.391 343.157C294.314 341.945 294.306 340.72 294.428 339.507C294.525 338.531 294.782 337.334 295.246 336.516C295.665 335.78 296.275 335.304 297.004 335.23C297.533 335.177 297.895 335.222 298.257 335.385C298.233 335.373 298.741 335.694 298.623 335.601C298.802 335.743 298.965 335.91 299.112 336.089C299.128 336.113 299.217 336.24 299.238 336.264C299.299 336.362 299.36 336.455 299.417 336.557C299.559 336.809 299.669 337.045 299.73 337.204C299.938 337.741 300.088 338.303 300.202 338.868C300.43 339.991 300.507 341.143 300.524 342.348C300.54 343.536 300.491 344.728 300.389 345.912C300.357 346.287 300.32 346.657 300.275 347.027H294.867V347.023Z" fill="#190209"/>
<path d="M297.024 466.247C297.024 466.247 284.657 396.437 297.024 395.497C309.39 394.557 297.024 466.247 297.024 466.247Z" fill="#FF4700"/>
<path d="M307.169 464.074C307.169 464.074 317.212 396.392 325.461 396.401C334.421 396.413 307.169 464.074 307.169 464.074Z" fill="#C2B300"/>
<path d="M286.472 465.429C286.472 465.429 275.945 396.4 267.171 397.756C258.316 399.123 286.472 465.429 286.472 465.429Z" fill="#C2B300"/>
<path d="M285.43 377.817C286.275 375.062 285.29 372.317 283.23 371.685C281.169 371.052 278.814 372.773 277.968 375.527C277.123 378.281 278.108 381.027 280.169 381.659C282.229 382.292 284.585 380.571 285.43 377.817Z" fill="#FF4700"/>
<path d="M318.03 376.204C318.542 379.041 317.24 381.649 315.12 382.036C313 382.418 310.864 380.432 310.351 377.596C309.838 374.76 311.14 372.151 313.26 371.765C315.381 371.382 317.517 373.368 318.03 376.204Z" fill="#FF4700"/>
<path d="M301.866 374.198C301.659 377.071 299.75 379.277 297.602 379.122C295.453 378.967 293.878 376.51 294.086 373.637C294.293 370.764 296.202 368.558 298.35 368.713C300.499 368.867 302.074 371.325 301.866 374.198Z" fill="#FF4700"/>
<path d="M71.5544 298V326.306C71.5544 327.698 71.3754 329.216 71.5544 330.599C71.5626 330.66 71.5544 330.726 71.5544 330.787C71.5544 331.727 73.0723 331.731 73.0723 330.787V298H71.5544Z" fill="#190209"/>
<path d="M175.164 298V389.116C175.164 390.508 174.985 392.026 175.164 393.41C175.172 393.471 175.164 393.536 175.164 393.597C175.164 394.537 176.682 394.541 176.682 393.597V298H175.164Z" fill="#190209"/>
<path d="M296.67 298V334.937C296.67 336.329 296.491 337.847 296.67 339.23C296.679 339.292 296.67 339.357 296.67 339.418C296.67 340.358 298.188 340.362 298.188 339.418V298H296.67Z" fill="#190209"/>
<path d="M252.111 529.712V343.845C252.111 341.383 252.298 333.562 252.111 331.108C252.103 331.002 252.111 330.884 252.111 330.778C252.111 329.11 250.524 329.11 250.524 330.778V521.773C250.524 524.234 250.337 526.928 250.524 529.378C250.532 529.484 250.524 529.602 250.524 529.708C250.524 531.376 252.111 531.376 252.111 529.708V529.712Z" fill="#190209"/>
<path d="M98.9902 703.175V506.59C98.9902 503.985 98.3025 436.797 98.1112 434.204C98.1031 434.091 98.1112 433.968 98.1112 433.855C98.1112 432.093 96.5242 432.088 96.5242 433.855C96.5242 440.626 97.4031 511.737 97.4031 518.509V694.78C97.4031 697.384 97.216 700.233 97.4031 702.825C97.4113 702.939 97.4031 703.061 97.4031 703.175C97.4031 704.937 98.9902 704.941 98.9902 703.175Z" fill="#190209"/>
<path d="M143.679 563.854C145.881 561.721 141.966 556.004 139.598 555.658C125.176 553.542 110.763 551.43 96.3409 549.314C96.1741 548.984 96.0357 548.744 95.8282 548.329C93.2523 543.088 90.6683 537.859 88.0924 532.609C84.723 525.748 76.9627 510.362 76.4297 509.267C78.2405 508.336 79.3148 506.822 79.3148 504.649C79.3148 501.552 76.804 499.041 73.7073 499.041C70.6105 499.041 68.0997 501.552 68.0997 504.649C68.0997 506.871 69.3938 508.783 71.2698 509.691C64.771 522.806 58.2764 535.918 51.7858 549.033C49.8447 552.948 14.1119 554.429 7.38124 555.393C3.40957 555.963 7.03535 562.014 8.38637 563.333C18.2464 572.965 28.0982 582.601 37.9623 592.237C37.8931 592.795 37.8036 593.474 37.6489 594.337C36.656 600.083 35.655 605.841 34.658 611.603C33.3802 618.977 32.1146 626.35 30.8287 633.728C30.0393 637.626 32.9041 641.883 35.8991 641.61C37.6896 641.321 63.5543 627.416 76.7674 620.486C78.7166 619.469 108.463 637.643 115.459 641.342C118.047 642.701 119.166 640.548 118.763 638.2C116.244 623.347 113.717 608.49 111.19 593.641C111.153 593.409 138.34 569.046 143.679 563.854ZM73.7114 501.69C75.3432 501.69 76.6657 503.013 76.6657 504.645C76.6657 506.277 75.3432 507.599 73.7114 507.599C73.6707 507.599 73.6381 507.591 73.5974 507.587C73.4306 507.542 73.2637 507.526 73.105 507.534C71.7662 507.253 70.757 506.065 70.757 504.641C70.757 503.009 72.0796 501.686 73.7114 501.686V501.69Z" fill="#A0CCB7"/>
<path d="M132.798 563.825C130.315 555.271 78.6431 576.118 74.0325 577.994C74.0732 577.905 74.061 577.897 73.9918 577.974C74.6673 573.534 83.1519 516.784 74.2197 517.463C65.3201 518.139 73.2105 573.245 73.8982 577.929C73.8575 577.885 73.8494 577.897 73.882 577.962C68.9865 575.732 17.5624 552.524 15.9794 561.261C14.4005 569.986 68.5226 577.376 73.8331 578.08C73.7477 578.116 73.7558 578.129 73.8616 578.121C70.5451 581.872 32.4562 625.264 40.1106 629.838C47.7487 634.399 71.7537 582.922 73.9349 578.202C73.9389 578.239 73.9511 578.214 73.9633 578.145C73.9633 578.145 73.9633 578.141 73.9633 578.137C76.0712 582.369 102.086 634.192 109.179 628.743C116.252 623.31 77.4426 581.71 74.061 578.108C74.179 578.125 74.2156 578.116 74.1627 578.092C79.7947 577.579 135.26 572.326 132.794 563.829L132.798 563.825Z" fill="#3264BC"/>
<path d="M79.5302 583.161C82.2308 580.335 82.13 575.856 79.3049 573.155C76.4798 570.455 72.0003 570.555 69.2996 573.381C66.599 576.206 66.6999 580.685 69.5249 583.386C72.35 586.086 76.8295 585.986 79.5302 583.161Z" fill="#FF4700"/>
<path d="M63.2533 540.809L66.1588 566.922L40.168 557.53L57.6905 556.814L63.2533 540.809Z" fill="#EFE9CB"/>
<path d="M105.912 562.246L80.3931 568.293L86.6558 540.902L89.3944 558.657L105.912 562.246Z" fill="#EFE9CB"/>
<path d="M100.719 603.721L84.2224 581.014L111.471 576.314L96.581 585.604L100.719 603.721Z" fill="#EFE9CB"/>
<path d="M59.717 616.499L73.9353 589.73L89.1098 617.707L74.4846 602.907L59.717 616.499Z" fill="#EFE9CB"/>
<path d="M34.8533 575.557L63.0049 580.55L47.342 603.721L50.9149 585.82L34.8533 575.557Z" fill="#EFE9CB"/>
<path d="M73.6543 395.224V498.398C73.6543 499.79 73.4752 501.308 73.6543 502.691C73.6624 502.752 73.6543 502.817 73.6543 502.879C73.6543 503.819 75.1721 503.823 75.1721 502.879V398.008C75.1721 397.108 75.2454 396.16 75.2495 395.228H73.6543V395.224Z" fill="#190209"/>
<path d="M72.3363 349.156C56.5595 349.156 28.1026 371.134 28.0701 382.203C28.0416 393.515 61.8049 422.29 74.5134 422.294C88.4061 422.294 117.783 390.439 117.783 381.409C117.783 372.477 91.4906 349.156 72.3363 349.156Z" fill="#FF4700"/>
<path d="M74.5172 422.444C66.5006 422.444 50.5773 411.278 39.818 400.486C32.2491 392.897 27.9152 386.231 27.9234 382.199C27.9356 377.043 34.3285 368.88 44.2088 361.404C54.3211 353.754 65.0967 349.001 72.336 349.001C80.8938 349.001 91.8281 353.668 102.335 361.811C111.52 368.924 117.933 376.982 117.933 381.405C117.933 385.828 111.007 395.786 101.464 405.341C90.7742 416.047 80.6985 422.44 74.5172 422.44V422.444ZM72.336 349.306C65.1577 349.306 54.4513 354.035 44.3879 361.648C34.5808 369.067 28.2367 377.136 28.2204 382.203C28.2082 386.154 32.5136 392.742 40.0255 400.275C45.5313 405.797 52.258 411.286 58.484 415.343C65.2188 419.73 70.9118 422.143 74.5131 422.143C80.6171 422.143 90.6114 415.783 101.249 405.133C110.738 395.627 117.628 385.653 117.628 381.409C117.628 377.165 111.259 369.116 102.144 362.051C91.6898 353.953 80.8206 349.306 72.332 349.306H72.336Z" fill="#FF4700"/>
<path d="M77.7484 340.122H76.4258C76.5683 338.946 76.6415 337.761 76.6415 336.577C76.6456 334.445 76.5276 331.885 75.2905 330.058C74.029 328.198 71.388 327.743 69.7115 329.362C68.1081 330.909 67.9576 333.586 67.9861 335.666C68.0064 337.151 68.1529 338.653 68.4174 340.122H67.0705C67.0705 340.122 63.5912 345.64 60.1282 351.829C60.9665 354.083 65.6421 353.888 68.686 351.178C70.6067 355.113 75.5713 354.458 76.5561 351.178C80.7719 355.113 84.5442 351.52 84.5442 351.52L77.7524 340.122H77.7484ZM70.1265 340.122C70.0736 339.837 70.0207 339.548 69.976 339.259C69.9027 338.791 69.8986 338.758 69.8417 338.25C69.7888 337.774 69.7481 337.302 69.7155 336.821C69.6504 335.788 69.6423 334.742 69.744 333.708C69.8254 332.878 70.0451 331.857 70.4439 331.157C70.802 330.53 71.3229 330.123 71.9455 330.062C72.3972 330.017 72.7024 330.054 73.0157 330.196C72.9954 330.188 73.4268 330.457 73.3291 330.38C73.4837 330.502 73.6221 330.644 73.7442 330.795C73.7564 330.815 73.8378 330.921 73.85 330.945C73.9029 331.027 73.9558 331.108 74.0046 331.193C74.1267 331.409 74.2203 331.609 74.2732 331.747C74.4522 332.207 74.5784 332.683 74.676 333.167C74.8714 334.123 74.9365 335.108 74.9528 336.134C74.969 337.147 74.9243 338.164 74.8388 339.173C74.8103 339.491 74.7778 339.808 74.7411 340.126H70.1306L70.1265 340.122Z" fill="#190209"/>
<path d="M106.754 365.502C106.494 365.791 106.246 366.092 106.022 366.409C103.731 363.455 98.3432 362.784 93.4966 366.678C89.8586 363.187 85.012 363.589 79.7585 367.484C75.5834 363.187 70.1956 364.529 67.2331 367.484C64.5392 364.261 57.5359 363.052 52.4167 366.544C49.1856 362.649 44.0664 361.978 39.3501 366.544C39.2036 366.271 39.0367 366.019 38.8536 365.779C32.363 371.598 27.7972 377.767 27.7891 382.194C27.7728 387.68 35.7039 397.255 45.3401 405.687C45.9342 405.312 46.4673 404.856 46.8946 404.283C48.1073 407.371 57.133 408.714 61.3082 404.283C62.7894 407.506 69.2556 408.177 72.2181 405.088C74.1022 408.58 81.1095 407.774 85.8218 405.088C89.4598 409.251 97.1346 407.103 99.6942 404.283C100.06 404.828 100.557 405.284 101.131 405.666C110.433 396.457 118.022 385.991 118.022 381.401C118.022 377.686 113.465 371.484 106.759 365.502H106.754Z" fill="#FF9DBE"/>
<path d="M98.0422 377.856L109.77 383.566L97.6474 390.121L85.6836 384.205L98.0422 377.856Z" fill="#EFE9CB"/>
<path d="M73.2108 378.503L84.9386 384.213L72.8161 390.764L60.8481 384.848L73.2108 378.503Z" fill="#EFE9CB"/>
<path d="M48.4124 379.224L60.1402 384.933L48.0136 391.485L36.0498 385.568L48.4124 379.224Z" fill="#EFE9CB"/>
<path d="M97.9607 385.686C95.0918 385.783 92.7357 385.018 92.6991 383.981C92.6665 382.943 94.9616 382.023 97.8346 381.93C100.703 381.832 103.06 382.597 103.096 383.635C103.133 384.673 100.834 385.592 97.9607 385.686Z" fill="#3264BC"/>
<path d="M72.9872 386.41C70.1183 386.508 67.7622 385.743 67.7255 384.705C67.6889 383.668 69.9881 382.748 72.861 382.654C75.7299 382.561 78.086 383.322 78.1227 384.359C78.1552 385.397 75.8601 386.317 72.9872 386.41Z" fill="#3264BC"/>
<path d="M48.1599 387.236C45.2911 387.33 42.9349 386.569 42.8983 385.531C42.8657 384.494 45.1608 383.574 48.0338 383.48C50.9027 383.383 53.2588 384.148 53.2954 385.185C53.3321 386.223 51.0329 387.143 48.1599 387.236Z" fill="#3264BC"/>
<path d="M111.597 370.296C111.243 369.905 110.876 369.514 110.494 369.12C107.137 369.384 103.971 370.751 101.407 372.929C99.5636 371.35 97.061 370.646 94.7008 370.344C91.84 369.978 88.8002 370.17 86.0616 371.118C84.8693 371.533 83.738 372.111 82.7491 372.9C80.5883 370.662 77.2067 369.938 74.1913 369.982C70.8545 370.031 67.4566 370.987 64.722 372.937C63.0821 371.146 60.6608 370.263 58.2925 369.921C55.3788 369.498 52.2821 369.754 49.5271 370.825C48.2616 371.317 47.0652 371.98 46.0478 372.884C44.0539 370.849 41.5634 369.567 38.6905 369.266C37.5267 369.144 36.3547 369.177 35.1868 369.299C34.731 369.775 34.2956 370.251 33.8765 370.723C35.3658 370.467 36.8674 370.344 38.369 370.467C41.242 370.699 43.6876 372.054 45.5961 374.182C45.8159 374.426 46.2432 374.41 46.4629 374.182C48.7865 371.809 52.396 370.975 55.6148 370.959C58.5203 370.947 62.2194 371.586 64.0994 374.06C64.3598 374.402 64.7261 374.45 65.0638 374.186C67.6072 372.188 70.9928 371.264 74.1913 371.219C77.0846 371.179 80.3157 371.862 82.2486 374.186C82.4643 374.446 82.8916 374.398 83.1154 374.186C85.4634 371.997 89.0892 371.403 92.1819 371.415C95.1647 371.427 98.7538 371.989 100.963 374.186C101.208 374.426 101.586 374.41 101.83 374.186C104.386 371.862 107.686 370.426 111.149 370.304C111.291 370.3 111.438 370.304 111.584 370.304L111.597 370.296Z" fill="#3264BC"/>
<path d="M106.27 400.368C106.111 400.36 105.957 400.368 105.798 400.352C102.925 400.12 100.479 398.765 98.5708 396.636C98.3511 396.392 97.9238 396.409 97.7041 396.636C95.3805 399.009 91.771 399.843 88.5521 399.859C85.6466 399.872 81.9476 399.233 80.0676 396.758C79.8071 396.417 79.4409 396.368 79.1031 396.632C76.5598 398.63 73.1741 399.554 69.9756 399.599C67.0823 399.64 63.8513 398.956 61.9184 396.632C61.7027 396.372 61.2754 396.421 61.0516 396.632C58.7036 398.822 55.0778 399.416 51.9851 399.404C49.0023 399.391 45.4131 398.83 43.2035 396.632C42.9593 396.392 42.5809 396.409 42.3367 396.632C41.1892 397.678 39.887 398.529 38.4912 399.176C38.7883 399.485 39.0935 399.794 39.3987 400.103C40.6032 399.505 41.7385 398.757 42.7722 397.878C44.6156 399.456 47.1182 400.16 49.4784 400.462C52.3391 400.828 55.3789 400.637 58.1176 399.688C59.3099 399.273 60.4453 398.695 61.43 397.906C63.5909 400.144 66.9725 400.868 69.9878 400.824C73.3247 400.775 76.7226 399.819 79.4572 397.869C81.0971 399.66 83.5184 400.543 85.8867 400.885C88.8004 401.308 91.8971 401.052 94.6521 399.981C95.9176 399.489 97.114 398.826 98.1313 397.922C100.068 399.9 102.477 401.157 105.245 401.503C105.594 401.121 105.94 400.738 106.282 400.356L106.27 400.368Z" fill="#3264BC"/>
<path d="M201.452 550.64C200.727 550.64 200.072 551.116 199.84 551.804H189.431L196.78 544.268C196.992 544.357 197.211 544.402 197.435 544.402C198.375 544.402 199.14 543.637 199.14 542.697C199.14 541.757 198.375 540.992 197.435 540.992C196.495 540.992 195.73 541.757 195.73 542.697C195.73 542.998 195.812 543.291 195.962 543.552L188.69 551.011V539.958C189.378 539.726 189.854 539.075 189.854 538.347C189.854 537.407 189.089 536.642 188.149 536.642C187.209 536.642 186.444 537.407 186.444 538.347C186.444 539.071 186.92 539.726 187.608 539.958V550.913L180.718 543.132C180.926 542.839 181.036 542.506 181.036 542.156C181.036 541.216 180.271 540.451 179.331 540.451C178.391 540.451 177.626 541.216 177.626 542.156C177.626 543.096 178.391 543.861 179.331 543.861C179.498 543.861 179.668 543.832 179.843 543.775L186.949 551.8H176.641C176.393 551.137 175.762 550.693 175.05 550.693C174.11 550.693 173.345 551.458 173.345 552.398C173.345 553.338 174.11 554.103 175.05 554.103C175.807 554.103 176.466 553.607 176.682 552.883H186.867L179.599 560.338C179.363 560.224 179.115 560.163 178.863 560.163C177.923 560.163 177.158 560.928 177.158 561.868C177.158 562.808 177.923 563.573 178.863 563.573C179.803 563.573 180.568 562.808 180.568 561.868C180.568 561.599 180.503 561.343 180.377 561.094L187.612 553.676V563.699C186.924 563.931 186.448 564.582 186.448 565.31C186.448 566.25 187.213 567.015 188.153 567.015C189.093 567.015 189.858 566.25 189.858 565.31C189.858 564.586 189.382 563.931 188.694 563.699V553.774L195.396 561.347C195.311 561.554 195.266 561.774 195.266 561.994C195.266 562.934 196.031 563.699 196.971 563.699C197.911 563.699 198.676 562.934 198.676 561.994C198.676 561.054 197.911 560.289 196.971 560.289C196.67 560.289 196.373 560.37 196.113 560.521L189.353 552.887H199.848C200.08 553.574 200.731 554.05 201.46 554.05C202.4 554.05 203.165 553.285 203.165 552.345C203.165 551.405 202.4 550.64 201.46 550.64H201.452Z" fill="white"/>
<path d="M41.1284 689.779C40.404 689.779 39.7489 690.255 39.5169 690.943H29.1076L36.4568 683.406C36.6684 683.496 36.8881 683.541 37.1119 683.541C38.0519 683.541 38.817 682.776 38.817 681.836C38.817 680.896 38.0519 680.131 37.1119 680.131C36.1719 680.131 35.4069 680.896 35.4069 681.836C35.4069 682.137 35.4883 682.43 35.6388 682.69L28.3669 690.149V679.097C29.0547 678.865 29.5308 678.214 29.5308 677.486C29.5308 676.546 28.7657 675.781 27.8257 675.781C26.8857 675.781 26.1207 676.546 26.1207 677.486C26.1207 678.21 26.5968 678.865 27.2845 679.097V690.052L20.3951 682.271C20.6027 681.978 20.7125 681.644 20.7125 681.294C20.7125 680.354 19.9475 679.589 19.0075 679.589C18.0675 679.589 17.3024 680.354 17.3024 681.294C17.3024 682.234 18.0675 683 19.0075 683C19.1743 683 19.3452 682.971 19.5202 682.914L26.6253 690.939H16.3176C16.0694 690.275 15.4387 689.832 14.7265 689.832C13.7865 689.832 13.0215 690.597 13.0215 691.537C13.0215 692.477 13.7865 693.242 14.7265 693.242C15.4834 693.242 16.1427 692.746 16.3583 692.021H26.5439L19.276 699.476C19.04 699.362 18.7918 699.301 18.5395 699.301C17.5995 699.301 16.8344 700.066 16.8344 701.006C16.8344 701.946 17.5995 702.711 18.5395 702.711C19.4795 702.711 20.2445 701.946 20.2445 701.006C20.2445 700.738 20.1794 700.481 20.0533 700.233L27.2886 692.815V702.837C26.6008 703.069 26.1247 703.721 26.1247 704.449C26.1247 705.389 26.8898 706.154 27.8298 706.154C28.7698 706.154 29.5348 705.389 29.5348 704.449C29.5348 703.725 29.0587 703.069 28.371 702.837V692.912L35.0732 700.485C34.9877 700.693 34.943 700.913 34.943 701.132C34.943 702.072 35.708 702.837 36.648 702.837C37.588 702.837 38.3531 702.072 38.3531 701.132C38.3531 700.192 37.588 699.427 36.648 699.427C36.3469 699.427 36.0498 699.509 35.7894 699.659L29.0302 692.025H39.525C39.757 692.713 40.4081 693.189 41.1365 693.189C42.0765 693.189 42.8416 692.424 42.8416 691.484C42.8416 690.544 42.0765 689.779 41.1365 689.779H41.1284Z" fill="white"/>
<path d="M420.317 652.886C419.592 652.886 418.937 653.363 418.705 654.05H408.296L415.645 646.514C415.857 646.603 416.077 646.648 416.3 646.648C417.24 646.648 418.005 645.883 418.005 644.943C418.005 644.003 417.24 643.238 416.3 643.238C415.36 643.238 414.595 644.003 414.595 644.943C414.595 645.244 414.677 645.537 414.827 645.798L407.555 653.257V642.204C408.243 641.972 408.719 641.321 408.719 640.593C408.719 639.653 407.954 638.888 407.014 638.888C406.074 638.888 405.309 639.653 405.309 640.593C405.309 641.317 405.785 641.972 406.473 642.204V653.159L399.584 645.379C399.791 645.086 399.901 644.752 399.901 644.402C399.901 643.462 399.136 642.697 398.196 642.697C397.256 642.697 396.491 643.462 396.491 644.402C396.491 645.342 397.256 646.107 398.196 646.107C398.363 646.107 398.534 646.078 398.709 646.021L405.814 654.046H395.506C395.258 653.383 394.627 652.939 393.915 652.939C392.975 652.939 392.21 653.704 392.21 654.644C392.21 655.584 392.975 656.349 393.915 656.349C394.672 656.349 395.331 655.853 395.547 655.129H405.732L398.465 662.584C398.229 662.47 397.98 662.409 397.728 662.409C396.788 662.409 396.023 663.174 396.023 664.114C396.023 665.054 396.788 665.819 397.728 665.819C398.668 665.819 399.433 665.054 399.433 664.114C399.433 663.845 399.368 663.589 399.242 663.341L406.477 655.922V665.945C405.789 666.177 405.313 666.828 405.313 667.556C405.313 668.496 406.078 669.261 407.018 669.261C407.958 669.261 408.723 668.496 408.723 667.556C408.723 666.832 408.247 666.177 407.559 665.945V656.02L414.262 663.593C414.176 663.8 414.131 664.02 414.131 664.24C414.131 665.18 414.896 665.945 415.837 665.945C416.777 665.945 417.542 665.18 417.542 664.24C417.542 663.3 416.777 662.535 415.837 662.535C415.535 662.535 415.238 662.616 414.978 662.767L408.219 655.133H418.714C418.945 655.82 419.597 656.297 420.325 656.297C421.265 656.297 422.03 655.531 422.03 654.591C422.03 653.651 421.265 652.886 420.325 652.886H420.317Z" fill="white"/>
<path d="M340.48 484.591C339.699 484.615 339.052 485.059 338.743 485.755H328.936C331.247 483.382 333.558 481.014 335.87 478.642C336.708 478.89 337.616 478.621 338.092 477.836C338.564 477.059 338.401 476.009 337.713 475.411C337.021 474.812 335.984 474.788 335.268 475.358C334.568 475.915 334.38 476.867 334.743 477.661C332.464 479.997 330.189 482.333 327.91 484.668V474.243C328.712 473.881 329.2 473.05 329.042 472.151C328.879 471.26 328.069 470.593 327.166 470.593C326.262 470.593 325.452 471.26 325.29 472.151C325.127 473.046 325.619 473.881 326.421 474.243V484.538C324.276 482.113 322.128 479.687 319.983 477.266C320.427 476.489 320.297 475.48 319.601 474.878C318.921 474.292 317.9 474.251 317.188 474.8C316.475 475.35 316.239 476.338 316.634 477.148C317.025 477.962 317.936 478.353 318.791 478.157C321.033 480.693 323.275 483.224 325.517 485.759H315.78C315.401 484.994 314.595 484.526 313.716 484.685C312.809 484.847 312.133 485.686 312.158 486.605C312.182 487.513 312.862 488.298 313.761 488.441C314.665 488.587 315.499 488.066 315.832 487.248H325.404C323.121 489.588 320.842 491.928 318.559 494.268C317.729 493.967 316.805 494.215 316.292 494.976C315.78 495.729 315.902 496.787 316.561 497.413C317.224 498.044 318.27 498.117 319.007 497.572C319.727 497.039 319.938 496.119 319.625 495.314C321.892 492.99 324.158 490.662 326.425 488.339V497.735C325.623 498.097 325.135 498.927 325.294 499.827C325.456 500.718 326.266 501.385 327.17 501.385C328.073 501.385 328.883 500.718 329.046 499.827C329.208 498.931 328.716 498.097 327.914 497.735V488.469C330.006 490.833 332.098 493.194 334.189 495.558C333.908 496.417 334.262 497.393 335.08 497.833C335.87 498.26 336.879 498.073 337.457 497.381C338.031 496.693 338.043 495.672 337.485 494.968C336.928 494.268 335.98 494.081 335.19 494.439C333.07 492.042 330.95 489.649 328.83 487.252H338.747C339.333 488.534 341.131 488.843 342.023 487.635C342.955 486.373 342.002 484.64 340.484 484.599L340.48 484.591Z" fill="white"/>
<path d="M34.7558 330.298C34.0315 330.298 33.3763 330.774 33.1443 331.462H22.735L30.0842 323.926C30.2958 324.015 30.5156 324.06 30.7394 324.06C31.6794 324.06 32.4444 323.295 32.4444 322.355C32.4444 321.415 31.6794 320.65 30.7394 320.65C29.7994 320.65 29.0343 321.415 29.0343 322.355C29.0343 322.656 29.1157 322.949 29.2663 323.21L21.9944 330.669V319.616C22.6821 319.384 23.1582 318.733 23.1582 318.005C23.1582 317.065 22.3932 316.3 21.4532 316.3C20.5131 316.3 19.7481 317.065 19.7481 318.005C19.7481 318.729 20.2242 319.384 20.9119 319.616V330.571L14.0226 322.79C14.2301 322.497 14.34 322.164 14.34 321.814C14.34 320.874 13.5749 320.109 12.6349 320.109C11.6949 320.109 10.9299 320.874 10.9299 321.814C10.9299 322.754 11.6949 323.519 12.6349 323.519C12.8018 323.519 12.9727 323.49 13.1476 323.433L20.2527 331.458H9.94508C9.69686 330.795 9.06611 330.351 8.35398 330.351C7.41396 330.351 6.64893 331.116 6.64893 332.056C6.64893 332.996 7.41396 333.761 8.35398 333.761C9.11087 333.761 9.7701 333.265 9.98578 332.541H20.1713L12.9035 339.996C12.6675 339.882 12.4192 339.821 12.1669 339.821C11.2269 339.821 10.4619 340.586 10.4619 341.526C10.4619 342.466 11.2269 343.231 12.1669 343.231C13.107 343.231 13.872 342.466 13.872 341.526C13.872 341.257 13.8069 341.001 13.6807 340.752L20.916 333.334V343.357C20.2283 343.589 19.7522 344.24 19.7522 344.968C19.7522 345.908 20.5172 346.673 21.4572 346.673C22.3972 346.673 23.1623 345.908 23.1623 344.968C23.1623 344.244 22.6862 343.589 21.9984 343.357V333.432L28.7006 341.005C28.6152 341.212 28.5704 341.432 28.5704 341.652C28.5704 342.592 29.3355 343.357 30.2755 343.357C31.2155 343.357 31.9805 342.592 31.9805 341.652C31.9805 340.712 31.2155 339.947 30.2755 339.947C29.9743 339.947 29.6773 340.028 29.4168 340.179L22.6577 332.545H33.1525C33.3844 333.232 34.0355 333.708 34.7639 333.708C35.704 333.708 36.469 332.943 36.469 332.003C36.469 331.063 35.704 330.298 34.7639 330.298H34.7558Z" fill="white"/>
<path d="M316.655 560.224C316.346 560.224 316.012 560.146 315.658 559.996C314.575 559.532 314.299 558.559 314.494 557.843C314.518 557.652 314.689 556.659 315.666 556.37C315.788 556.333 315.918 556.317 316.061 556.317C316.679 556.317 317.399 556.671 317.851 557.192C318.209 557.607 318.368 558.095 318.299 558.563C318.144 559.601 317.53 560.224 316.655 560.224Z" fill="white"/>
<path d="M365.219 729.907C364.909 729.907 364.576 729.829 364.222 729.679C363.139 729.215 362.863 728.242 363.058 727.526C363.082 727.335 363.253 726.342 364.23 726.053C364.352 726.016 364.482 726 364.625 726C365.243 726 365.963 726.354 366.415 726.875C366.773 727.29 366.932 727.778 366.863 728.246C366.708 729.284 366.094 729.907 365.219 729.907Z" fill="white"/>
<path d="M412.841 415.937C412.532 415.937 412.198 415.86 411.844 415.709C410.762 415.246 410.485 414.273 410.681 413.557C410.705 413.366 410.876 412.373 411.852 412.084C411.975 412.047 412.109 412.031 412.247 412.031C412.866 412.031 413.586 412.385 414.038 412.906C414.396 413.321 414.555 413.809 414.485 414.277C414.331 415.315 413.716 415.937 412.841 415.937Z" fill="white"/>
<path d="M142.577 524.275C142.267 524.275 141.934 524.198 141.58 524.047C140.497 523.583 140.221 522.611 140.416 521.895C140.44 521.703 140.611 520.71 141.588 520.422C141.71 520.385 141.844 520.369 141.983 520.369C142.601 520.369 143.321 520.723 143.773 521.244C144.131 521.659 144.29 522.147 144.221 522.615C144.066 523.653 143.452 524.275 142.577 524.275Z" fill="white"/>
<path d="M131.219 662.584C130.91 662.584 130.576 662.506 130.222 662.356C129.14 661.892 128.863 660.919 129.058 660.203C129.083 660.012 129.254 659.019 130.23 658.73C130.352 658.694 130.482 658.677 130.625 658.677C131.243 658.677 131.964 659.031 132.415 659.552C132.773 659.967 132.932 660.456 132.863 660.924C132.708 661.961 132.094 662.584 131.219 662.584Z" fill="white"/>
<path d="M10.8933 779.524C10.5841 779.524 10.2504 779.447 9.89634 779.296C8.81389 778.832 8.53718 777.86 8.73251 777.143C8.75692 776.952 8.92784 775.959 9.90448 775.67C10.0266 775.634 10.1568 775.617 10.2992 775.617C10.9177 775.617 11.638 775.971 12.0897 776.492C12.4478 776.907 12.6065 777.396 12.5373 777.864C12.3827 778.901 11.7682 779.524 10.8933 779.524Z" fill="white"/>
<path d="M-1.19677 604.925C-1.50603 604.925 -1.83972 604.848 -2.19375 604.697C-3.27619 604.234 -3.55291 603.261 -3.35758 602.545C-3.33316 602.354 -3.16225 601.361 -2.18561 601.072C-2.06353 601.035 -1.93331 601.019 -1.79089 601.019C-1.17235 601.019 -0.452077 601.373 -0.000380993 601.894C0.35772 602.309 0.516423 602.797 0.447245 603.265C0.29261 604.303 -0.321859 604.925 -1.19677 604.925Z" fill="white"/>
<path d="M8.95216 490.252C8.64289 490.252 8.30921 490.174 7.95518 490.024C6.87273 489.56 6.59602 488.587 6.79135 487.871C6.81576 487.68 6.98667 486.687 7.96331 486.398C8.08539 486.361 8.21561 486.345 8.35804 486.345C8.97658 486.345 9.69685 486.699 10.1485 487.22C10.5066 487.635 10.6654 488.123 10.5962 488.591C10.4415 489.629 9.82707 490.252 8.95216 490.252Z" fill="white"/>
<path d="M379.237 298C379.249 303.587 379.265 311.01 379.265 313.052V407.087C379.265 408.478 379.086 409.996 379.265 411.38C379.273 411.441 379.265 411.506 379.265 411.567C379.265 412.507 380.783 412.511 380.783 411.567V306.696C380.783 306.187 380.795 301.85 380.803 298H379.237Z" fill="#190209"/>
<path d="M51.2188 320.907C50.9095 320.907 50.5758 320.829 50.2218 320.679C49.1393 320.215 48.8626 319.242 49.0579 318.526C49.0824 318.335 49.2533 317.342 50.2299 317.053C50.352 317.016 50.4822 317 50.6246 317C51.2432 317 51.9635 317.354 52.4151 317.875C52.7732 318.29 52.932 318.778 52.8628 319.246C52.7081 320.284 52.0937 320.907 51.2188 320.907Z" fill="white"/>
</g>
<path d="M428.107 313.998C427.383 313.998 426.727 314.475 426.495 315.162H416.086L423.435 307.626C423.647 307.715 423.867 307.76 424.09 307.76C425.03 307.76 425.795 306.995 425.795 306.055C425.795 305.115 425.03 304.35 424.09 304.35C423.15 304.35 422.385 305.115 422.385 306.055C422.385 306.356 422.467 306.649 422.617 306.91L415.345 314.369V303.316C416.033 303.085 416.509 302.433 416.509 301.705C416.509 300.765 415.744 300 414.804 300C413.864 300 413.099 300.765 413.099 301.705C413.099 302.429 413.575 303.085 414.263 303.316V314.271L407.374 306.491C407.581 306.198 407.691 305.864 407.691 305.514C407.691 304.574 406.926 303.809 405.986 303.809C405.046 303.809 404.281 304.574 404.281 305.514C404.281 306.454 405.046 307.219 405.986 307.219C406.153 307.219 406.324 307.19 406.499 307.134L413.604 315.158H403.296C403.048 314.495 402.417 314.051 401.705 314.051C400.765 314.051 400 314.816 400 315.756C400 316.696 400.765 317.461 401.705 317.461C402.462 317.461 403.121 316.965 403.337 316.241H413.522L406.255 323.696C406.019 323.582 405.77 323.521 405.518 323.521C404.578 323.521 403.813 324.286 403.813 325.226C403.813 326.166 404.578 326.931 405.518 326.931C406.458 326.931 407.223 326.166 407.223 325.226C407.223 324.957 407.158 324.701 407.032 324.453L414.267 317.034V327.057C413.579 327.289 413.103 327.94 413.103 328.668C413.103 329.608 413.868 330.373 414.808 330.373C415.748 330.373 416.513 329.608 416.513 328.668C416.513 327.944 416.037 327.289 415.35 327.057V317.132L422.052 324.705C421.966 324.912 421.922 325.132 421.922 325.352C421.922 326.292 422.687 327.057 423.627 327.057C424.567 327.057 425.332 326.292 425.332 325.352C425.332 324.412 424.567 323.647 423.627 323.647C423.325 323.647 423.028 323.728 422.768 323.879L416.009 316.245H426.504C426.736 316.932 427.387 317.409 428.115 317.409C429.055 317.409 429.82 316.644 429.82 315.704C429.82 314.764 429.055 313.998 428.115 313.998H428.107Z" fill="white"/>
<path d="M43.2188 232.907C42.9095 232.907 42.5758 232.829 42.2218 232.679C41.1393 232.215 40.8626 231.242 41.0579 230.526C41.0824 230.335 41.2533 229.342 42.2299 229.053C42.352 229.016 42.4822 229 42.6246 229C43.2432 229 43.9635 229.354 44.4151 229.875C44.7732 230.29 44.932 230.778 44.8628 231.246C44.7081 232.284 44.0937 232.907 43.2188 232.907Z" fill="white"/>
<path d="M136.107 29.9985C135.383 29.9985 134.727 30.4746 134.495 31.1623H124.086L131.435 23.6259C131.647 23.7154 131.867 23.7602 132.09 23.7602C133.03 23.7602 133.795 22.9952 133.795 22.0552C133.795 21.1152 133.03 20.3501 132.09 20.3501C131.15 20.3501 130.385 21.1152 130.385 22.0552C130.385 22.3563 130.467 22.6493 130.617 22.9097L123.345 30.3688V19.3165C124.033 19.0846 124.509 18.4335 124.509 17.7051C124.509 16.765 123.744 16 122.804 16C121.864 16 121.099 16.765 121.099 17.7051C121.099 18.4294 121.575 19.0846 122.263 19.3165V30.2711L115.374 22.4906C115.581 22.1976 115.691 21.8639 115.691 21.5139C115.691 20.5739 114.926 19.8089 113.986 19.8089C113.046 19.8089 112.281 20.5739 112.281 21.5139C112.281 22.454 113.046 23.219 113.986 23.219C114.153 23.219 114.324 23.1905 114.499 23.1336L121.604 31.1583H111.296C111.048 30.495 110.417 30.0514 109.705 30.0514C108.765 30.0514 108 30.8164 108 31.7565C108 32.6965 108.765 33.4615 109.705 33.4615C110.462 33.4615 111.121 32.9651 111.337 32.2407H121.522L114.255 39.6957C114.019 39.5818 113.77 39.5207 113.518 39.5207C112.578 39.5207 111.813 40.2858 111.813 41.2258C111.813 42.1658 112.578 42.9308 113.518 42.9308C114.458 42.9308 115.223 42.1658 115.223 41.2258C115.223 40.9572 115.158 40.7009 115.032 40.4526L122.267 33.0342V43.057C121.579 43.2889 121.103 43.94 121.103 44.6684C121.103 45.6085 121.868 46.3735 122.808 46.3735C123.748 46.3735 124.513 45.6085 124.513 44.6684C124.513 43.9441 124.037 43.2889 123.35 43.057V33.1319L130.052 40.7049C129.966 40.9125 129.921 41.1322 129.921 41.3519C129.921 42.2919 130.687 43.057 131.627 43.057C132.567 43.057 133.332 42.2919 133.332 41.3519C133.332 40.4119 132.567 39.6469 131.627 39.6469C131.325 39.6469 131.028 39.7283 130.768 39.8788L124.009 32.2448H134.504C134.736 32.9325 135.387 33.4086 136.115 33.4086C137.055 33.4086 137.82 32.6436 137.82 31.7036C137.82 30.7635 137.055 29.9985 136.115 29.9985H136.107Z" fill="white"/>
<path d="M407.107 44.9985C406.383 44.9985 405.727 45.4746 405.495 46.1623H395.086L402.435 38.6259C402.647 38.7154 402.867 38.7602 403.09 38.7602C404.03 38.7602 404.795 37.9952 404.795 37.0552C404.795 36.1152 404.03 35.3501 403.09 35.3501C402.15 35.3501 401.385 36.1152 401.385 37.0552C401.385 37.3563 401.467 37.6493 401.617 37.9097L394.345 45.3688V34.3165C395.033 34.0845 395.509 33.4335 395.509 32.7051C395.509 31.765 394.744 31 393.804 31C392.864 31 392.099 31.765 392.099 32.7051C392.099 33.4294 392.575 34.0845 393.263 34.3165V45.2711L386.374 37.4906C386.581 37.1976 386.691 36.8639 386.691 36.5139C386.691 35.5739 385.926 34.8089 384.986 34.8089C384.046 34.8089 383.281 35.5739 383.281 36.5139C383.281 37.454 384.046 38.219 384.986 38.219C385.153 38.219 385.324 38.1905 385.499 38.1335L392.604 46.1583H382.296C382.048 45.495 381.417 45.0514 380.705 45.0514C379.765 45.0514 379 45.8164 379 46.7564C379 47.6965 379.765 48.4615 380.705 48.4615C381.462 48.4615 382.121 47.965 382.337 47.2407H392.522L385.255 54.6957C385.019 54.5818 384.77 54.5207 384.518 54.5207C383.578 54.5207 382.813 55.2858 382.813 56.2258C382.813 57.1658 383.578 57.9308 384.518 57.9308C385.458 57.9308 386.223 57.1658 386.223 56.2258C386.223 55.9572 386.158 55.7008 386.032 55.4526L393.267 48.0342V58.057C392.579 58.2889 392.103 58.94 392.103 59.6684C392.103 60.6085 392.868 61.3735 393.808 61.3735C394.748 61.3735 395.513 60.6085 395.513 59.6684C395.513 58.9441 395.037 58.2889 394.35 58.057V48.1319L401.052 55.7049C400.966 55.9124 400.922 56.1322 400.922 56.3519C400.922 57.2919 401.687 58.057 402.627 58.057C403.567 58.057 404.332 57.2919 404.332 56.3519C404.332 55.4119 403.567 54.6469 402.627 54.6469C402.325 54.6469 402.028 54.7283 401.768 54.8788L395.009 47.2448H405.504C405.736 47.9325 406.387 48.4086 407.115 48.4086C408.055 48.4086 408.82 47.6436 408.82 46.7035C408.82 45.7635 408.055 44.9985 407.115 44.9985H407.107Z" fill="white"/>
<defs>
<clipPath id="clip0_88_3986">
<rect width="437.026" height="532" fill="white" transform="translate(-15 298)"/>
</clipPath>
</defs>
</svg>
