<svg width="32" height="32" viewBox="0 0 32 32" fill="none" xmlns="http://www.w3.org/2000/svg">
<path fill-rule="evenodd" clip-rule="evenodd" d="M21.326 5.1344C21.2242 3.75459 20.0725 2.66675 18.6667 2.66675H13.3333L13.1343 2.67406C11.7545 2.77586 10.6667 3.9276 10.6667 5.33341V8.00008H6.68219H6.65411H5.33333L5.17784 8.00905C4.51472 8.08607 4 8.64963 4 9.33341C4 10.0698 4.59695 10.6667 5.33333 10.6667H5.43982L6.67127 25.4441L6.67759 25.6677C6.79512 27.6682 8.53643 29.3334 10.6667 29.3334H21.3333L21.5684 29.3266C23.6681 29.205 25.3333 27.4637 25.3333 25.3334L26.5598 10.6667H26.6667L26.8222 10.6578C27.4853 10.5808 28 10.0172 28 9.33341C28 8.59703 27.403 8.00008 26.6667 8.00008H21.3333V5.33341L21.326 5.1344ZM18.6667 8.00008V5.33341H13.3333V8.00008H18.6667ZM12 10.6667H8.11532L9.33333 25.3334C9.33333 26.0172 9.84805 26.5808 10.5112 26.6578L10.6667 26.6667H21.3333C22.0206 26.6667 22.5865 26.1467 22.6626 25.3887L22.6713 25.2227L23.8843 10.6667H20H12ZM13.3333 13.3334C14.0171 13.3334 14.5807 13.8481 14.6577 14.5113L14.6667 14.6667V22.6667C14.6667 23.4031 14.0697 24.0001 13.3333 24.0001C12.6496 24.0001 12.086 23.4854 12.009 22.8222L12 22.6667V14.6667C12 13.9304 12.597 13.3334 13.3333 13.3334ZM19.991 14.5113C19.914 13.8481 19.3504 13.3334 18.6667 13.3334C17.9303 13.3334 17.3333 13.9304 17.3333 14.6667V22.6667L17.3423 22.8222C17.4193 23.4854 17.9829 24.0001 18.6667 24.0001C19.403 24.0001 20 23.4031 20 22.6667V14.6667L19.991 14.5113Z" fill="#131313"/>
</svg>
