<svg width="64" height="64" viewBox="0 0 64 64" fill="none" xmlns="http://www.w3.org/2000/svg">
<path fill-rule="evenodd" clip-rule="evenodd" d="M17.635 13.8922C16.5889 13.0788 15.0763 13.1528 14.115 14.1141C13.0736 15.1555 13.0736 16.8439 14.115 17.8853L28.2294 31.9997L14.115 46.1141L13.8932 46.3653C13.0798 47.4114 13.1537 48.924 14.115 49.8853C15.1564 50.9267 16.8449 50.9267 17.8863 49.8853L32.0007 35.7709L46.115 49.8853L46.3663 50.1071C47.4124 50.9205 48.925 50.8466 49.8863 49.8853C50.9277 48.8439 50.9277 47.1555 49.8863 46.1141L35.7719 31.9997L49.8863 17.8853L50.1081 17.6341C50.9215 16.588 50.8476 15.0753 49.8863 14.1141C48.8449 13.0727 47.1564 13.0727 46.115 14.1141L32.0007 28.2284L17.8863 14.1141L17.635 13.8922Z" fill="#171717"/>
</svg>
