<svg xmlns="http://www.w3.org/2000/svg" width="32" height="32" viewBox="0 0 32 32" fill="none">
  <path fill-rule="evenodd" clip-rule="evenodd" d="M17.9125 8.04758C14.4485 7.40976 11.2725 9.4478 10.6389 12.2927C10.5031 12.9025 9.96184 13.3363 9.33682 13.3363C6.54992 13.3363 4.40127 15.4735 4.40127 18.003C4.40127 20.5174 6.56146 22.6696 9.35016 22.6696C10.0869 22.6696 10.6841 23.2666 10.6841 24.003C10.6841 24.7394 10.0869 25.3363 9.35016 25.3363C5.20241 25.3363 1.7334 22.1019 1.7334 18.003C1.7334 14.2329 4.63884 11.2096 8.32166 10.7346C9.74017 6.86749 14.0988 4.63465 18.3941 5.42472C22.4841 6.16758 25.5056 9.48085 25.4857 13.3383C28.7231 13.4202 31.3334 16.0628 31.3334 19.3363C31.3334 22.646 28.6419 25.3363 25.3307 25.3363H23.9968C23.26 25.3363 22.6628 24.7394 22.6628 24.003C22.6628 23.2666 23.26 22.6696 23.9968 22.6696H25.3307C27.1685 22.6696 28.6655 21.1733 28.6655 19.3363C28.6655 17.4885 27.171 16.003 25.3307 16.003H23.9968C23.5912 16.003 23.2078 15.8186 22.9546 15.5019C22.7015 15.1853 22.6062 14.7707 22.6957 14.3754C23.3269 11.5871 21.3431 8.67003 17.9159 8.0482L17.9125 8.04758Z" fill="white"/>
  <path fill-rule="evenodd" clip-rule="evenodd" d="M15.0766 15.0602C15.5975 14.5395 16.4421 14.5395 16.9631 15.0602L20.9649 19.0602C21.4858 19.5809 21.4858 20.4251 20.9649 20.9458C20.4439 21.4665 19.5993 21.4665 19.0784 20.9458L16.0198 17.8886L12.9613 20.9458C12.4403 21.4665 11.5957 21.4665 11.0748 20.9458C10.5539 20.4251 10.5539 19.5809 11.0748 19.0602L15.0766 15.0602Z" fill="white"/>
  <path fill-rule="evenodd" clip-rule="evenodd" d="M16.0198 14.6696C16.7565 14.6696 17.3538 15.2666 17.3538 16.003V28.003C17.3538 28.7394 16.7565 29.3363 16.0198 29.3363C15.2831 29.3363 14.6859 28.7394 14.6859 28.003V16.003C14.6859 15.2666 15.2831 14.6696 16.0198 14.6696Z" fill="white"/>
</svg>
